<?xml version="1.0" standalone="no"?>
<!DOCTYPE svg PUBLIC "-//W3C//DTD SVG 1.1//EN" "http://www.w3.org/Graphics/SVG/1.1/DTD/svg11.dtd" >
<svg xmlns="http://www.w3.org/2000/svg">
<metadata>Generated by IcoMoon</metadata>
<defs>
<font id="icomoon" horiz-adv-x="1024">
<font-face units-per-em="1024" ascent="960" descent="-64" />
<missing-glyph horiz-adv-x="1024" />
<glyph unicode="&#x20;" horiz-adv-x="512" d="" />
<glyph unicode="&#xe900;" glyph-name="Vector-1" d="M0 448c0 47.128 38.205 85.333 85.333 85.333h853.333c47.13 0 85.333-38.205 85.333-85.333s-38.204-85.333-85.333-85.333h-853.333c-47.128 0-85.333 38.205-85.333 85.333zM512 960c47.128 0 85.333-38.205 85.333-85.333v-853.333c0-47.13-38.205-85.333-85.333-85.333s-85.333 38.204-85.333 85.333v853.333c0 47.128 38.205 85.333 85.333 85.333z" />
<glyph unicode="&#xe901;" horiz-adv-x="1552" d="M1503.006 855.23c13.339 0 24.157 10.815 24.157 24.157s-10.817 24.157-24.157 24.157c-13.339 0-24.157-10.815-24.157-24.157s10.817-24.157 24.157-24.157z" />
<glyph unicode="&#xe902;" horiz-adv-x="1552" d="M1508.532 877.726c2.698 1.792 4.466 4.85 4.466 8.325 0 5.52-4.478 9.996-9.993 9.996s-9.993-4.476-9.993-9.996c0-3.475 1.768-6.533 4.466-8.325 0 0 0-0.001 0-0.001s0 0.001 0 0.001c-6.446-1.942-11.466-7.17-13.080-13.748v-0.001c0.271-0.317 0.542-0.627 0.825-0.931 0.059-0.074 0.13-0.145 0.2-0.217 0.212-0.228 0.436-0.453 0.66-0.673 0.094-0.091 0.189-0.178 0.283-0.267 0.2-0.197 0.412-0.391 0.625-0.58 0.106-0.093 0.212-0.186 0.318-0.277 0.212-0.179 0.424-0.355 0.636-0.526 0.118-0.091 0.236-0.18 0.342-0.269 0.224-0.168 0.448-0.331 0.672-0.491 0.106-0.082 0.224-0.167 0.342-0.247 0.236-0.163 0.483-0.32 0.719-0.475 0.106-0.069 0.212-0.141 0.33-0.209 0.271-0.172 0.566-0.337 0.848-0.499 0.071-0.043 0.153-0.088 0.224-0.13 0.377-0.203 0.754-0.398 1.131-0.582 0.012-0.004 0.024-0.008 0.035-0.012 0.365-0.175 0.731-0.341 1.108-0.497 0.118-0.049 0.236-0.093 0.354-0.139 0.271-0.108 0.542-0.215 0.825-0.313 0.141-0.052 0.295-0.1 0.436-0.15 0.259-0.085 0.507-0.167 0.766-0.243 0.153-0.048 0.318-0.093 0.483-0.138 0.247-0.068 0.495-0.133 0.742-0.194 0.177-0.041 0.342-0.080 0.518-0.117 0.247-0.055 0.495-0.105 0.754-0.152 0.165-0.032 0.342-0.064 0.507-0.092 0.271-0.042 0.53-0.078 0.79-0.112 0.177-0.022 0.342-0.046 0.507-0.063 0.295-0.032 0.589-0.054 0.872-0.075 0.153-0.010 0.295-0.025 0.436-0.033 0.436-0.025 0.872-0.039 1.32-0.039s0.884 0.014 1.32 0.037c0.141 0.007 0.283 0.023 0.436 0.033 0.295 0.021 0.577 0.043 0.872 0.075 0.165 0.018 0.33 0.042 0.507 0.063 0.259 0.034 0.518 0.070 0.79 0.112 0.165 0.028 0.342 0.060 0.507 0.092 0.259 0.047 0.507 0.097 0.754 0.152 0.177 0.038 0.342 0.077 0.518 0.117 0.247 0.061 0.495 0.126 0.742 0.194 0.165 0.045 0.33 0.090 0.483 0.138 0.259 0.077 0.507 0.159 0.766 0.243 0.141 0.050 0.295 0.097 0.436 0.15 0.283 0.099 0.554 0.205 0.825 0.313 0.118 0.047 0.236 0.091 0.354 0.139 0.377 0.157 0.742 0.321 1.108 0.496 0.012 0.005 0.024 0.010 0.035 0.015 0.377 0.184 0.754 0.379 1.131 0.582 0.071 0.042 0.153 0.087 0.224 0.13 0.283 0.162 0.577 0.327 0.848 0.499 0.118 0.068 0.224 0.139 0.33 0.209 0.236 0.155 0.483 0.312 0.719 0.475 0.118 0.081 0.236 0.164 0.342 0.247 0.224 0.161 0.448 0.324 0.672 0.491 0.118 0.088 0.224 0.178 0.342 0.269 0.212 0.172 0.424 0.347 0.636 0.526 0.106 0.092 0.212 0.184 0.318 0.277 0.212 0.189 0.424 0.383 0.625 0.58 0.094 0.089 0.189 0.177 0.283 0.267 0.224 0.22 0.448 0.445 0.66 0.673 0.071 0.073 0.141 0.144 0.2 0.217 0.283 0.304 0.554 0.614 0.825 0.931v0.001c-1.614 6.579-6.634 11.807-13.080 13.749z" />
<glyph unicode="&#xe903;" horiz-adv-x="1552" d="M1525.019 898.712c0-3.261-2.644-5.905-5.905-5.905s-5.905 2.644-5.905 5.905c0 3.261 2.644 5.905 5.905 5.905s5.905-2.644 5.905-5.905z" />
<glyph unicode="&#xe904;" horiz-adv-x="1552" d="M1506.187 940.926c-0.436 0.195-0.943-0.009-1.131-0.456s0.012-0.968 0.448-1.164c2.781-1.256 4.631-4.1 4.631-7.293 0-4.393-3.464-7.954-7.718-7.954-4.266 0-7.718 3.561-7.718 7.954 0 3.192 1.85 6.036 4.631 7.293 0.436 0.196 0.636 0.717 0.448 1.164s-0.695 0.651-1.131 0.456c-3.405-1.536-5.656-5.012-5.656-8.912 0-5.369 4.219-9.722 9.427-9.722s9.427 4.353 9.427 9.722c0 3.901-2.251 7.377-5.656 8.912z" />
<glyph unicode="&#xe905;" horiz-adv-x="1552" d="M1502.417 933.781c0.471 0 0.86 0.396 0.86 0.884v7.954c0 0.488-0.389 0.884-0.86 0.884s-0.86-0.396-0.86-0.884v-7.954c0-0.488 0.389-0.884 0.86-0.884z" />
<glyph unicode="&#xe906;" horiz-adv-x="1552" d="M1483.563 842.163h36.529c6.508 0 11.784-5.276 11.784-11.784v-7.070c0-6.508-5.276-11.784-11.784-11.784h-36.529c-6.508 0-11.784 5.276-11.784 11.784v7.070c0 6.508 5.276 11.784 11.784 11.784z" />
<glyph unicode="&#xe907;" horiz-adv-x="1552" d="M1483.952 820.953h-1.32v10.053h1.32v-10.053zM1493.779 824.143c-0.13-1.063-0.518-1.885-1.178-2.465-0.66-0.575-1.544-0.863-2.64-0.863-1.178 0-2.133 0.425-2.852 1.277s-1.072 1.99-1.072 3.417v0.967c0 0.933 0.165 1.756 0.495 2.464 0.342 0.709 0.813 1.253 1.426 1.63 0.613 0.382 1.32 0.573 2.121 0.573 1.072 0 1.933-0.298 2.569-0.897 0.648-0.594 1.025-1.418 1.131-2.472h-1.332c-0.118 0.801-0.365 1.381-0.754 1.74s-0.919 0.539-1.614 0.539c-0.848 0-1.508-0.313-1.991-0.939s-0.719-1.517-0.719-2.673v-0.973c0-1.091 0.224-1.958 0.683-2.603s1.096-0.966 1.909-0.966c0.742 0 1.308 0.165 1.697 0.497 0.401 0.336 0.66 0.918 0.79 1.746h1.332zM1502.664 831.005v-6.836c0-0.947-0.295-1.723-0.896-2.326-0.589-0.603-1.39-0.942-2.404-1.015l-0.342-0.014c-1.108 0-1.98 0.297-2.64 0.891-0.648 0.594-0.978 1.411-0.99 2.451v6.849h1.308v-6.807c0-0.727 0.2-1.294 0.601-1.699 0.401-0.399 0.978-0.6 1.72-0.6s1.32 0.2 1.709 0.6c0.401 0.401 0.601 0.965 0.601 1.692v6.814h1.332z" />
<glyph unicode="&#xe908;" horiz-adv-x="1552" d="M1514.177 827.824l3.358-3.356-0.954-0.959-3.358 3.356 0.954 0.959z" />
<glyph unicode="&#xe909;" horiz-adv-x="1552" d="M1514.177 826.865c-0.259-0.264-0.695-0.264-0.954 0-0.271 0.265-0.271 0.695 0 0.959 0.259 0.265 0.695 0.265 0.954 0 0.271-0.264 0.271-0.694 0-0.959z" />
<glyph unicode="&#xe90a;" horiz-adv-x="1552" d="M1517.535 823.509c-0.259-0.265-0.695-0.265-0.954 0-0.271 0.264-0.271 0.694 0 0.959 0.259 0.264 0.695 0.264 0.954 0 0.271-0.265 0.271-0.695 0-0.959z" />
<glyph unicode="&#xe90b;" horiz-adv-x="1552" d="M1520.233 827.824l-3.358-3.356 0.954-0.959 3.358 3.356-0.954 0.959z" />
<glyph unicode="&#xe90c;" horiz-adv-x="1552" d="M1520.233 826.865c0.259-0.264 0.695-0.264 0.954 0 0.271 0.265 0.271 0.695 0 0.959-0.259 0.265-0.695 0.265-0.954 0-0.271-0.264-0.271-0.694 0-0.959z" />
<glyph unicode="&#xe90d;" horiz-adv-x="1552" d="M1516.875 823.509c0.271-0.265 0.695-0.265 0.954 0 0.271 0.264 0.271 0.694 0 0.959-0.259 0.264-0.683 0.264-0.954 0-0.259-0.265-0.259-0.695 0-0.959z" />
<glyph unicode="&#xe90e;" horiz-adv-x="1552" d="M573.148 929.362h786.225c5.532 0 10.016-4.484 10.016-10.016s-4.484-10.016-10.016-10.016h-786.225c-5.532 0-10.016 4.484-10.016 10.016s4.484 10.016 10.016 10.016z" />
<glyph unicode="&#xe90f;" horiz-adv-x="1552" d="M547.94 949.984h836.64c6.183 0 11.194-5.012 11.194-11.194v-17.675c0-6.183-5.012-11.194-11.194-11.194h-836.64c-6.183 0-11.194 5.012-11.194 11.194v17.675c0 6.183 5.012 11.194 11.194 11.194z" />
<glyph unicode="&#xe910;" horiz-adv-x="1552" d="M556.833 924.649h-1.333l-5.061 7.747v-7.747h-1.333v10.053h1.333l5.075-7.781v7.781h1.319v-10.053zM563.599 924.649c-0.073 0.147-0.133 0.41-0.179 0.787-0.594-0.617-1.303-0.925-2.127-0.925-0.736 0-1.342 0.207-1.816 0.621-0.469 0.419-0.705 0.948-0.705 1.588 0 0.778 0.295 1.381 0.884 1.809 0.594 0.433 1.427 0.649 2.499 0.649h1.243v0.587c0 0.446-0.133 0.801-0.401 1.063-0.266 0.267-0.66 0.401-1.181 0.401-0.455 0-0.838-0.115-1.145-0.345-0.309-0.23-0.463-0.509-0.463-0.835h-1.284c0 0.373 0.132 0.732 0.394 1.077 0.267 0.35 0.627 0.626 1.077 0.829 0.456 0.203 0.956 0.304 1.499 0.304 0.86 0 1.535-0.216 2.023-0.649 0.488-0.428 0.741-1.020 0.759-1.774v-3.438c0-0.686 0.087-1.231 0.263-1.636v-0.111h-1.34zM561.48 925.623c0.401 0 0.78 0.104 1.139 0.311s0.619 0.476 0.78 0.808v1.533h-1c-1.566 0-2.348-0.458-2.348-1.374 0-0.401 0.134-0.714 0.401-0.939s0.61-0.338 1.029-0.338zM568.412 933.929v-1.809h1.395v-0.987h-1.395v-4.633c0-0.299 0.062-0.525 0.186-0.677 0.125-0.147 0.336-0.221 0.635-0.221 0.147 0 0.35 0.028 0.608 0.083v-1.036c-0.336-0.092-0.663-0.138-0.98-0.138-0.57 0-1.002 0.173-1.291 0.518s-0.435 0.835-0.435 1.471v4.633h-1.36v0.987h1.36v1.809h1.277zM572.693 924.649h-1.277v7.471h1.277v-7.471zM571.312 934.101c0 0.207 0.062 0.382 0.186 0.525 0.13 0.143 0.318 0.214 0.567 0.214s0.437-0.071 0.566-0.214c0.128-0.143 0.193-0.318 0.193-0.525s-0.065-0.38-0.193-0.518c-0.128-0.138-0.317-0.207-0.566-0.207s-0.437 0.069-0.567 0.207c-0.124 0.138-0.186 0.311-0.186 0.518zM574.405 928.453c0 0.732 0.143 1.39 0.428 1.975 0.29 0.585 0.691 1.036 1.202 1.353 0.515 0.318 1.102 0.476 1.76 0.476 1.017 0 1.838-0.352 2.465-1.056 0.63-0.704 0.945-1.641 0.945-2.81v-0.090c0-0.727-0.14-1.381-0.421-1.961-0.276-0.575-0.674-1.024-1.195-1.346-0.515-0.322-1.109-0.483-1.781-0.483-1.013 0-1.835 0.352-2.465 1.056-0.626 0.704-0.939 1.636-0.939 2.796v0.090zM575.69 928.301c0-0.829 0.191-1.494 0.573-1.995 0.387-0.502 0.903-0.753 1.547-0.753 0.648 0 1.164 0.253 1.546 0.759 0.382 0.511 0.573 1.224 0.573 2.14 0 0.819-0.196 1.482-0.587 1.988-0.387 0.511-0.901 0.766-1.546 0.766-0.63 0-1.139-0.251-1.526-0.753s-0.58-1.22-0.58-2.154zM584.016 932.12l0.041-0.939c0.572 0.718 1.317 1.077 2.238 1.077 1.579 0 2.374-0.891 2.389-2.672v-4.937h-1.277v4.944c-0.005 0.539-0.128 0.937-0.372 1.195-0.239 0.258-0.615 0.387-1.125 0.387-0.415 0-0.778-0.11-1.091-0.331s-0.557-0.511-0.732-0.87v-5.323h-1.277v7.471h1.208zM595.222 924.649c-0.074 0.147-0.133 0.41-0.179 0.787-0.594-0.617-1.303-0.925-2.127-0.925-0.736 0-1.342 0.207-1.816 0.621-0.469 0.419-0.705 0.948-0.705 1.588 0 0.778 0.295 1.381 0.884 1.809 0.594 0.433 1.427 0.649 2.499 0.649h1.243v0.587c0 0.446-0.133 0.801-0.401 1.063-0.266 0.267-0.66 0.401-1.181 0.401-0.455 0-0.838-0.115-1.145-0.345-0.309-0.23-0.463-0.509-0.463-0.835h-1.284c0 0.373 0.132 0.732 0.394 1.077 0.267 0.35 0.626 0.626 1.077 0.829 0.456 0.203 0.956 0.304 1.499 0.304 0.86 0 1.534-0.216 2.023-0.649 0.488-0.428 0.74-1.020 0.759-1.774v-3.438c0-0.686 0.087-1.231 0.263-1.636v-0.111h-1.34zM593.102 925.623c0.401 0 0.78 0.104 1.139 0.311s0.619 0.476 0.78 0.808v1.533h-1.002c-1.565 0-2.347-0.458-2.347-1.374 0-0.401 0.134-0.714 0.401-0.939s0.61-0.338 1.029-0.338zM599.689 924.649h-1.277v10.605h1.277v-10.605zM612.842 927.839c-0.124-1.063-0.517-1.885-1.181-2.465-0.658-0.575-1.535-0.863-2.63-0.863-1.188 0-2.141 0.426-2.859 1.277-0.714 0.852-1.070 1.991-1.070 3.418v0.967c0 0.934 0.165 1.756 0.497 2.465 0.336 0.709 0.81 1.252 1.422 1.629 0.612 0.382 1.321 0.573 2.126 0.573 1.069 0 1.924-0.299 2.569-0.898 0.645-0.594 1.019-1.418 1.125-2.472h-1.333c-0.114 0.801-0.365 1.381-0.752 1.74-0.383 0.359-0.919 0.539-1.61 0.539-0.846 0-1.512-0.313-1.995-0.939-0.478-0.626-0.718-1.517-0.718-2.672v-0.974c0-1.091 0.227-1.959 0.683-2.603s1.092-0.967 1.912-0.967c0.736 0 1.3 0.166 1.691 0.497 0.396 0.336 0.659 0.918 0.787 1.747h1.333zM614.12 928.453c0 0.732 0.143 1.39 0.428 1.975 0.29 0.585 0.691 1.036 1.202 1.353 0.515 0.318 1.102 0.476 1.76 0.476 1.017 0 1.839-0.352 2.465-1.056 0.63-0.704 0.946-1.641 0.946-2.81v-0.090c0-0.727-0.141-1.381-0.422-1.961-0.276-0.575-0.674-1.024-1.195-1.346-0.515-0.322-1.109-0.483-1.781-0.483-1.013 0-1.835 0.352-2.465 1.056-0.626 0.704-0.939 1.636-0.939 2.796v0.090zM615.404 928.301c0-0.829 0.191-1.494 0.573-1.995 0.387-0.502 0.903-0.753 1.547-0.753 0.649 0 1.164 0.253 1.546 0.759 0.383 0.511 0.574 1.224 0.574 2.14 0 0.819-0.196 1.482-0.587 1.988-0.388 0.511-0.903 0.766-1.547 0.766-0.63 0-1.139-0.251-1.526-0.753s-0.58-1.22-0.58-2.154zM622.211 928.447c0 1.146 0.272 2.067 0.815 2.762 0.543 0.7 1.254 1.049 2.133 1.049 0.874 0 1.567-0.299 2.079-0.898v3.894h1.277v-10.605h-1.174l-0.062 0.801c-0.511-0.626-1.222-0.939-2.133-0.939-0.866 0-1.572 0.354-2.12 1.063-0.543 0.709-0.815 1.634-0.815 2.776v0.097zM623.489 928.301c0-0.847 0.176-1.51 0.526-1.988 0.349-0.479 0.833-0.718 1.449-0.718 0.811 0 1.402 0.364 1.775 1.091v3.432c-0.382 0.704-0.969 1.056-1.76 1.056-0.626 0-1.115-0.242-1.464-0.725s-0.526-1.199-0.526-2.147zM633.604 924.511c-1.012 0-1.836 0.331-2.471 0.994-0.635 0.667-0.953 1.558-0.953 2.672v0.235c0 0.741 0.14 1.402 0.421 1.982 0.286 0.585 0.682 1.040 1.188 1.367 0.511 0.331 1.064 0.497 1.657 0.497 0.972 0 1.726-0.32 2.265-0.96s0.808-1.556 0.808-2.748v-0.532h-5.061c0.019-0.736 0.232-1.333 0.642-1.788 0.414-0.451 0.939-0.677 1.574-0.677 0.451 0 0.833 0.092 1.147 0.276 0.312 0.184 0.587 0.428 0.821 0.732l0.78-0.608c-0.626-0.962-1.565-1.443-2.817-1.443zM633.445 931.208c-0.515 0-0.947-0.189-1.297-0.566-0.35-0.373-0.567-0.898-0.649-1.574h3.742v0.097c-0.037 0.649-0.212 1.151-0.524 1.505-0.313 0.359-0.736 0.539-1.271 0.539zM642.78 922.785h-1.029v11.917h1.029v-11.917zM649.995 928.585v-3.936h-1.326v10.053h3.708c1.099 0 1.961-0.281 2.582-0.842 0.627-0.562 0.939-1.305 0.939-2.23 0-0.976-0.306-1.728-0.918-2.258-0.608-0.525-1.48-0.787-2.617-0.787h-2.369zM649.995 929.669h2.383c0.708 0 1.251 0.166 1.63 0.497 0.377 0.336 0.566 0.819 0.566 1.45 0 0.598-0.189 1.077-0.566 1.436s-0.896 0.545-1.554 0.559h-2.458v-3.942zM661.92 924.649c-0.074 0.147-0.134 0.41-0.18 0.787-0.594-0.617-1.302-0.925-2.126-0.925-0.736 0-1.342 0.207-1.816 0.621-0.47 0.419-0.705 0.948-0.705 1.588 0 0.778 0.295 1.381 0.884 1.809 0.594 0.433 1.427 0.649 2.499 0.649h1.243v0.587c0 0.446-0.134 0.801-0.401 1.063-0.267 0.267-0.661 0.401-1.181 0.401-0.456 0-0.838-0.115-1.147-0.345s-0.462-0.509-0.462-0.835h-1.284c0 0.373 0.131 0.732 0.394 1.077 0.266 0.35 0.626 0.626 1.077 0.829 0.456 0.203 0.954 0.304 1.498 0.304 0.861 0 1.535-0.216 2.023-0.649 0.488-0.428 0.741-1.020 0.76-1.774v-3.438c0-0.686 0.087-1.231 0.262-1.636v-0.111h-1.339zM659.8 925.623c0.401 0 0.78 0.104 1.139 0.311 0.358 0.207 0.619 0.476 0.78 0.808v1.533h-1.002c-1.565 0-2.347-0.458-2.347-1.374 0-0.401 0.133-0.714 0.401-0.939 0.266-0.226 0.609-0.338 1.029-0.338zM666.732 933.929v-1.809h1.394v-0.987h-1.394v-4.633c0-0.299 0.061-0.525 0.186-0.677 0.124-0.147 0.336-0.221 0.635-0.221 0.147 0 0.35 0.028 0.607 0.083v-1.036c-0.336-0.092-0.662-0.138-0.98-0.138-0.57 0-1 0.173-1.29 0.518s-0.435 0.835-0.435 1.471v4.633h-1.361v0.987h1.361v1.809h1.277zM671.012 924.649h-1.277v7.471h1.277v-7.471zM669.631 934.101c0 0.207 0.062 0.382 0.187 0.525 0.128 0.143 0.317 0.214 0.566 0.214s0.437-0.071 0.567-0.214c0.128-0.143 0.193-0.318 0.193-0.525s-0.065-0.38-0.193-0.518c-0.13-0.138-0.318-0.207-0.567-0.207s-0.437 0.069-0.566 0.207c-0.125 0.138-0.187 0.311-0.187 0.518zM676.163 924.511c-1.012 0-1.836 0.331-2.471 0.994-0.635 0.667-0.953 1.558-0.953 2.672v0.235c0 0.741 0.14 1.402 0.422 1.982 0.285 0.585 0.681 1.040 1.187 1.367 0.511 0.331 1.064 0.497 1.658 0.497 0.971 0 1.726-0.32 2.265-0.96s0.807-1.556 0.807-2.748v-0.532h-5.061c0.019-0.736 0.232-1.333 0.642-1.788 0.415-0.451 0.939-0.677 1.574-0.677 0.451 0 0.833 0.092 1.147 0.276 0.312 0.184 0.587 0.428 0.821 0.732l0.78-0.608c-0.626-0.962-1.565-1.443-2.817-1.443zM676.005 931.208c-0.516 0-0.949-0.189-1.299-0.566-0.35-0.373-0.566-0.898-0.649-1.574h3.742v0.097c-0.037 0.649-0.212 1.151-0.524 1.505-0.313 0.359-0.736 0.539-1.27 0.539zM681.77 932.12l0.041-0.939c0.572 0.718 1.317 1.077 2.238 1.077 1.579 0 2.374-0.891 2.389-2.672v-4.937h-1.277v4.944c-0.005 0.539-0.128 0.937-0.372 1.195-0.239 0.258-0.615 0.387-1.125 0.387-0.415 0-0.778-0.11-1.091-0.331s-0.557-0.511-0.732-0.87v-5.323h-1.277v7.471h1.208zM690.097 933.929v-1.809h1.394v-0.987h-1.394v-4.633c0-0.299 0.061-0.525 0.186-0.677 0.124-0.147 0.336-0.221 0.635-0.221 0.147 0 0.35 0.028 0.608 0.083v-1.036c-0.337-0.092-0.663-0.138-0.98-0.138-0.572 0-1.002 0.173-1.291 0.518s-0.435 0.835-0.435 1.471v4.633h-1.361v0.987h1.361v1.809h1.277zM704.093 927.839c-0.125-1.063-0.518-1.885-1.181-2.465-0.659-0.575-1.535-0.863-2.631-0.863-1.188 0-2.14 0.426-2.859 1.277-0.713 0.852-1.070 1.991-1.070 3.418v0.967c0 0.934 0.166 1.756 0.497 2.465 0.336 0.709 0.811 1.252 1.422 1.629 0.613 0.382 1.321 0.573 2.127 0.573 1.068 0 1.924-0.299 2.569-0.898 0.643-0.594 1.019-1.418 1.125-2.472h-1.333c-0.115 0.801-0.366 1.381-0.753 1.74-0.382 0.359-0.918 0.539-1.608 0.539-0.847 0-1.512-0.313-1.995-0.939-0.48-0.626-0.719-1.517-0.719-2.672v-0.974c0-1.091 0.227-1.959 0.683-2.603s1.094-0.967 1.912-0.967c0.736 0 1.301 0.166 1.692 0.497 0.396 0.336 0.658 0.918 0.787 1.747h1.333zM705.37 928.453c0 0.732 0.143 1.39 0.428 1.975 0.29 0.585 0.691 1.036 1.201 1.353 0.516 0.318 1.103 0.476 1.762 0.476 1.017 0 1.838-0.352 2.464-1.056 0.632-0.704 0.946-1.641 0.946-2.81v-0.090c0-0.727-0.14-1.381-0.421-1.961-0.277-0.575-0.675-1.024-1.195-1.346-0.516-0.322-1.109-0.483-1.782-0.483-1.012 0-1.834 0.352-2.465 1.056-0.626 0.704-0.938 1.636-0.938 2.796v0.090zM706.653 928.301c0-0.829 0.192-1.494 0.574-1.995 0.387-0.502 0.901-0.753 1.546-0.753 0.649 0 1.165 0.253 1.547 0.759 0.382 0.511 0.573 1.224 0.573 2.14 0 0.819-0.196 1.482-0.587 1.988-0.387 0.511-0.903 0.766-1.546 0.766-0.632 0-1.139-0.251-1.526-0.753s-0.581-1.22-0.581-2.154zM713.462 928.447c0 1.146 0.271 2.067 0.814 2.762 0.543 0.7 1.255 1.049 2.134 1.049 0.874 0 1.567-0.299 2.077-0.898v3.894h1.277v-10.605h-1.174l-0.061 0.801c-0.511-0.626-1.223-0.939-2.134-0.939-0.865 0-1.572 0.354-2.12 1.063-0.543 0.709-0.814 1.634-0.814 2.776v0.097zM714.739 928.301c0-0.847 0.174-1.51 0.524-1.988s0.833-0.718 1.451-0.718c0.81 0 1.401 0.364 1.773 1.091v3.432c-0.382 0.704-0.969 1.056-1.76 1.056-0.626 0-1.114-0.242-1.464-0.725s-0.524-1.199-0.524-2.147zM724.854 924.511c-1.013 0-1.837 0.331-2.472 0.994-0.635 0.667-0.952 1.558-0.952 2.672v0.235c0 0.741 0.14 1.402 0.421 1.982 0.285 0.585 0.681 1.040 1.188 1.367 0.51 0.331 1.063 0.497 1.657 0.497 0.971 0 1.726-0.32 2.265-0.96s0.807-1.556 0.807-2.748v-0.532h-5.061c0.019-0.736 0.233-1.333 0.642-1.788 0.415-0.451 0.939-0.677 1.574-0.677 0.451 0 0.833 0.092 1.147 0.276s0.587 0.428 0.821 0.732l0.78-0.608c-0.626-0.962-1.565-1.443-2.816-1.443zM724.695 931.208c-0.516 0-0.949-0.189-1.299-0.566-0.349-0.373-0.566-0.898-0.648-1.574h3.741v0.097c-0.037 0.649-0.211 1.151-0.524 1.505-0.313 0.359-0.736 0.539-1.27 0.539zM734.030 922.785h-1.029v11.917h1.029v-11.917zM741.632 934.702l3.286-8.202 3.286 8.202h1.719v-10.053h-1.326v3.915l0.125 4.226-3.301-8.14h-1.015l-3.294 8.12 0.131-4.205v-3.915h-1.326v10.053h1.712zM751.726 928.453c0 0.732 0.144 1.39 0.429 1.975 0.29 0.585 0.691 1.036 1.201 1.353 0.516 0.318 1.103 0.476 1.76 0.476 1.018 0 1.839-0.352 2.465-1.056 0.63-0.704 0.946-1.641 0.946-2.81v-0.090c0-0.727-0.14-1.381-0.421-1.961-0.277-0.575-0.675-1.024-1.195-1.346-0.516-0.322-1.11-0.483-1.782-0.483-1.012 0-1.835 0.352-2.465 1.056-0.626 0.704-0.939 1.636-0.939 2.796v0.090zM753.010 928.301c0-0.829 0.191-1.494 0.574-1.995 0.387-0.502 0.901-0.753 1.546-0.753 0.649 0 1.164 0.253 1.547 0.759 0.382 0.511 0.573 1.224 0.573 2.14 0 0.819-0.196 1.482-0.587 1.988-0.387 0.511-0.903 0.766-1.547 0.766-0.63 0-1.138-0.251-1.526-0.753s-0.58-1.22-0.58-2.154zM766.454 928.301c0-1.141-0.263-2.060-0.787-2.755-0.526-0.69-1.229-1.036-2.113-1.036-0.944 0-1.673 0.334-2.189 1.001l-0.062-0.863h-1.174v10.605h1.277v-3.956c0.516 0.64 1.227 0.96 2.134 0.96 0.906 0 1.618-0.343 2.133-1.029 0.521-0.686 0.781-1.625 0.781-2.817v-0.111zM765.177 928.447c0 0.87-0.169 1.542-0.504 2.016s-0.82 0.711-1.451 0.711c-0.843 0-1.447-0.391-1.816-1.174v-3.231c0.391-0.782 1.002-1.174 1.83-1.174 0.613 0 1.089 0.237 1.429 0.711s0.511 1.188 0.511 2.141zM769.456 924.649h-1.277v7.471h1.277v-7.471zM768.075 934.101c0 0.207 0.062 0.382 0.187 0.525 0.128 0.143 0.317 0.214 0.566 0.214s0.437-0.071 0.567-0.214c0.128-0.143 0.193-0.318 0.193-0.525s-0.065-0.38-0.193-0.518c-0.13-0.138-0.318-0.207-0.567-0.207s-0.437 0.069-0.566 0.207c-0.125 0.138-0.187 0.311-0.187 0.518zM772.895 924.649h-1.277v10.605h1.277v-10.605zM778.046 924.511c-1.012 0-1.836 0.331-2.471 0.994-0.635 0.667-0.953 1.558-0.953 2.672v0.235c0 0.741 0.14 1.402 0.422 1.982 0.285 0.585 0.681 1.040 1.187 1.367 0.511 0.331 1.064 0.497 1.658 0.497 0.971 0 1.725-0.32 2.264-0.96s0.808-1.556 0.808-2.748v-0.532h-5.061c0.019-0.736 0.232-1.333 0.642-1.788 0.415-0.451 0.939-0.677 1.574-0.677 0.451 0 0.833 0.092 1.147 0.276 0.312 0.184 0.587 0.428 0.821 0.732l0.78-0.608c-0.626-0.962-1.565-1.443-2.817-1.443zM777.888 931.208c-0.516 0-0.949-0.189-1.299-0.566-0.35-0.373-0.566-0.898-0.649-1.574h3.742v0.097c-0.037 0.649-0.212 1.151-0.524 1.505-0.313 0.359-0.736 0.539-1.27 0.539zM787.222 922.785h-1.029v11.917h1.029v-11.917zM798.656 929.089h-4.219v-4.44h-1.326v10.053h6.228v-1.091h-4.902v-3.438h4.219v-1.084zM805.188 925.388c-0.497-0.585-1.227-0.877-2.189-0.877-0.797 0-1.403 0.23-1.823 0.691-0.414 0.465-0.623 1.151-0.628 2.057v4.861h1.277v-4.826c0-1.132 0.461-1.698 1.381-1.698 0.976 0 1.625 0.364 1.947 1.091v5.434h1.277v-7.471h-1.215l-0.027 0.739zM809.765 924.649h-1.277v10.605h1.277v-10.605zM813.203 924.649h-1.277v10.605h1.277v-10.605zM826.689 924.649h-1.333l-5.061 7.747v-7.747h-1.333v10.053h1.333l5.075-7.781v7.781h1.319v-10.053zM833.455 924.649c-0.074 0.147-0.133 0.41-0.179 0.787-0.594-0.617-1.303-0.925-2.127-0.925-0.736 0-1.342 0.207-1.816 0.621-0.47 0.419-0.705 0.948-0.705 1.588 0 0.778 0.295 1.381 0.884 1.809 0.594 0.433 1.427 0.649 2.499 0.649h1.243v0.587c0 0.446-0.133 0.801-0.401 1.063-0.266 0.267-0.66 0.401-1.181 0.401-0.456 0-0.838-0.115-1.147-0.345-0.308-0.23-0.462-0.509-0.462-0.835h-1.284c0 0.373 0.131 0.732 0.394 1.077 0.267 0.35 0.626 0.626 1.077 0.829 0.456 0.203 0.956 0.304 1.499 0.304 0.86 0 1.534-0.216 2.022-0.649 0.488-0.428 0.741-1.020 0.76-1.774v-3.438c0-0.686 0.087-1.231 0.263-1.636v-0.111h-1.34zM831.335 925.623c0.401 0 0.78 0.104 1.139 0.311s0.619 0.476 0.78 0.808v1.533h-1.002c-1.565 0-2.347-0.458-2.347-1.374 0-0.401 0.133-0.714 0.401-0.939s0.61-0.338 1.029-0.338zM837.736 932.12l0.034-0.829c0.548 0.644 1.287 0.967 2.217 0.967 1.045 0 1.756-0.4 2.133-1.201 0.249 0.359 0.572 0.649 0.967 0.87 0.401 0.221 0.872 0.331 1.415 0.331 1.638 0 2.472-0.868 2.499-2.603v-5.006h-1.277v4.93c0 0.534-0.123 0.932-0.366 1.195-0.244 0.267-0.653 0.4-1.229 0.4-0.474 0-0.867-0.143-1.18-0.428-0.313-0.281-0.495-0.66-0.546-1.139v-4.957h-1.284v4.895c0 1.086-0.531 1.629-1.596 1.629-0.838 0-1.411-0.357-1.719-1.070v-5.455h-1.277v7.471h1.209zM852.034 924.511c-1.012 0-1.836 0.331-2.471 0.994-0.635 0.667-0.953 1.558-0.953 2.672v0.235c0 0.741 0.14 1.402 0.422 1.982 0.285 0.585 0.681 1.040 1.187 1.367 0.511 0.331 1.064 0.497 1.658 0.497 0.971 0 1.726-0.32 2.265-0.96s0.807-1.556 0.807-2.748v-0.532h-5.061c0.019-0.736 0.232-1.333 0.642-1.788 0.415-0.451 0.939-0.677 1.574-0.677 0.451 0 0.833 0.092 1.147 0.276 0.312 0.184 0.587 0.428 0.821 0.732l0.78-0.608c-0.626-0.962-1.565-1.443-2.817-1.443zM851.876 931.208c-0.516 0-0.949-0.189-1.299-0.566-0.35-0.373-0.566-0.898-0.649-1.574h3.742v0.097c-0.037 0.649-0.212 1.151-0.524 1.505-0.313 0.359-0.736 0.539-1.27 0.539z" />
<glyph unicode="&#xe911;" horiz-adv-x="1552" d="M1381.292 922.795l-4.49 4.667c1.155 1.372 1.791 3.097 1.791 4.894 0 4.197-3.417 7.612-7.612 7.612s-7.612-3.415-7.612-7.612c0-4.197 3.417-7.612 7.612-7.612 1.579 0 3.076 0.475 4.36 1.378l4.525-4.702c0.189-0.196 0.436-0.304 0.719-0.304 0.247 0 0.495 0.098 0.683 0.277 0.389 0.38 0.401 1.009 0.024 1.404zM1370.982 937.982c3.099 0 5.621-2.524 5.621-5.626s-2.522-5.626-5.621-5.626c-3.099 0-5.621 2.524-5.621 5.626s2.522 5.626 5.621 5.626z" />
<glyph unicode="&#xe912;" horiz-adv-x="1552" d="M8.375 934.702v-6.718c0-1.068-0.343-1.915-1.029-2.541-0.681-0.621-1.59-0.932-2.727-0.932-1.151 0-2.064 0.306-2.741 0.918-0.677 0.617-1.015 1.471-1.015 2.562v6.711h1.74v-6.725c0-0.672 0.17-1.185 0.511-1.54s0.842-0.532 1.505-0.532c1.344 0 2.016 0.709 2.016 2.127v6.67h1.74zM14.272 926.679c0 0.299-0.124 0.527-0.373 0.683-0.244 0.156-0.651 0.295-1.222 0.414s-1.047 0.272-1.429 0.456c-0.838 0.405-1.257 0.992-1.257 1.761 0 0.644 0.272 1.183 0.815 1.616s1.234 0.649 2.071 0.649c0.893 0 1.613-0.221 2.161-0.663 0.552-0.442 0.829-1.015 0.829-1.719h-1.678c0 0.322-0.12 0.589-0.359 0.801-0.239 0.216-0.557 0.325-0.953 0.325-0.368 0-0.67-0.085-0.904-0.255-0.23-0.17-0.345-0.398-0.345-0.683 0-0.258 0.108-0.458 0.325-0.601s0.654-0.288 1.312-0.435c0.658-0.143 1.174-0.315 1.547-0.518 0.377-0.198 0.656-0.437 0.835-0.718 0.184-0.281 0.276-0.621 0.276-1.022 0-0.672-0.278-1.217-0.835-1.636-0.557-0.414-1.287-0.621-2.189-0.621-0.612 0-1.158 0.111-1.636 0.331s-0.852 0.525-1.119 0.911c-0.267 0.387-0.4 0.803-0.4 1.25h1.629c0.023-0.396 0.173-0.702 0.449-0.918 0.276-0.212 0.642-0.318 1.098-0.318 0.442 0 0.778 0.083 1.008 0.249 0.23 0.17 0.345 0.391 0.345 0.663zM20.679 924.511c-1.063 0-1.926 0.334-2.589 1.001-0.658 0.672-0.987 1.565-0.987 2.679v0.207c0 0.746 0.143 1.411 0.428 1.995 0.29 0.589 0.695 1.047 1.215 1.374s1.1 0.49 1.74 0.49c1.017 0 1.802-0.325 2.354-0.973 0.557-0.649 0.835-1.567 0.835-2.755v-0.677h-4.881c0.051-0.617 0.255-1.105 0.615-1.464 0.364-0.359 0.819-0.539 1.367-0.539 0.769 0 1.395 0.311 1.878 0.932l0.905-0.863c-0.299-0.446-0.7-0.794-1.201-1.043-0.497-0.244-1.056-0.366-1.678-0.366zM20.479 930.911c-0.46 0-0.833-0.161-1.119-0.483-0.281-0.322-0.46-0.771-0.539-1.346h3.197v0.124c-0.037 0.562-0.186 0.985-0.449 1.27-0.262 0.29-0.626 0.435-1.091 0.435zM28.895 930.587c-0.221 0.037-0.449 0.055-0.684 0.055-0.769 0-1.287-0.295-1.554-0.884v-5.109h-1.678v7.471h1.602l0.041-0.835c0.405 0.649 0.967 0.973 1.685 0.973 0.239 0 0.437-0.032 0.594-0.097l-0.007-1.574zM35.903 934.702l2.9-7.705 2.893 7.705h2.258v-10.053h-1.74v3.314l0.173 4.433-2.969-7.747h-1.25l-2.962 7.74 0.173-4.426v-3.314h-1.74v10.053h2.265zM50.327 924.649c-0.074 0.143-0.138 0.375-0.193 0.697-0.534-0.557-1.188-0.835-1.961-0.835-0.75 0-1.363 0.214-1.837 0.642s-0.711 0.957-0.711 1.588c0 0.796 0.295 1.406 0.884 1.83 0.594 0.428 1.441 0.642 2.541 0.642h1.029v0.49c0 0.387-0.108 0.695-0.324 0.925-0.216 0.235-0.545 0.352-0.987 0.352-0.382 0-0.695-0.097-0.939-0.29-0.244-0.189-0.366-0.43-0.366-0.725h-1.678c0 0.41 0.136 0.792 0.407 1.146 0.272 0.359 0.64 0.64 1.105 0.842 0.47 0.203 0.992 0.304 1.567 0.304 0.875 0 1.572-0.221 2.092-0.663 0.52-0.437 0.787-1.054 0.801-1.85v-3.369c0-0.672 0.094-1.208 0.283-1.609v-0.117h-1.712zM48.483 925.857c0.331 0 0.642 0.081 0.932 0.242 0.295 0.161 0.516 0.377 0.663 0.649v1.409h-0.904c-0.621 0-1.089-0.108-1.402-0.325s-0.469-0.522-0.469-0.918c0-0.322 0.106-0.58 0.318-0.773 0.216-0.189 0.504-0.283 0.863-0.283zM55.070 932.12l0.048-0.863c0.552 0.667 1.277 1.001 2.175 1.001 1.556 0 2.348-0.891 2.375-2.672v-4.937h-1.678v4.84c0 0.474-0.104 0.824-0.311 1.049-0.203 0.23-0.536 0.345-1.001 0.345-0.677 0-1.181-0.306-1.512-0.918v-5.316h-1.678v7.471h1.581zM65.848 924.649c-0.074 0.143-0.138 0.375-0.193 0.697-0.534-0.557-1.188-0.835-1.961-0.835-0.75 0-1.362 0.214-1.837 0.642s-0.711 0.957-0.711 1.588c0 0.796 0.295 1.406 0.884 1.83 0.594 0.428 1.441 0.642 2.541 0.642h1.029v0.49c0 0.387-0.108 0.695-0.325 0.925-0.216 0.235-0.545 0.352-0.987 0.352-0.382 0-0.695-0.097-0.939-0.29-0.244-0.189-0.366-0.43-0.366-0.725h-1.678c0 0.41 0.136 0.792 0.407 1.146 0.272 0.359 0.64 0.64 1.105 0.842 0.469 0.203 0.992 0.304 1.567 0.304 0.875 0 1.572-0.221 2.092-0.663 0.52-0.437 0.787-1.054 0.801-1.85v-3.369c0-0.672 0.094-1.208 0.283-1.609v-0.117h-1.712zM64.005 925.857c0.331 0 0.642 0.081 0.932 0.242 0.295 0.161 0.516 0.377 0.663 0.649v1.409h-0.905c-0.621 0-1.089-0.108-1.402-0.325s-0.469-0.522-0.469-0.918c0-0.322 0.106-0.58 0.318-0.773 0.216-0.189 0.504-0.283 0.863-0.283zM68.741 928.44c0 1.16 0.272 2.085 0.815 2.776 0.548 0.695 1.273 1.043 2.175 1.043 0.852 0 1.521-0.297 2.009-0.891l0.076 0.753h1.512v-7.243c0-0.981-0.306-1.754-0.918-2.32-0.608-0.566-1.429-0.849-2.465-0.849-0.548 0-1.084 0.115-1.609 0.345-0.52 0.226-0.916 0.522-1.188 0.891l0.794 1.008c0.516-0.612 1.151-0.918 1.906-0.918 0.557 0 0.997 0.152 1.319 0.456 0.322 0.299 0.483 0.741 0.483 1.326v0.504c-0.483-0.539-1.128-0.808-1.933-0.808-0.875 0-1.59 0.348-2.147 1.043-0.552 0.695-0.829 1.657-0.829 2.886zM70.412 928.295c0-0.75 0.152-1.342 0.456-1.775 0.308-0.428 0.734-0.642 1.277-0.642 0.677 0 1.178 0.29 1.505 0.87v3.287c-0.318 0.566-0.815 0.849-1.491 0.849-0.552 0-0.983-0.219-1.291-0.656-0.304-0.437-0.456-1.082-0.456-1.933zM80.347 924.511c-1.063 0-1.926 0.334-2.589 1.001-0.658 0.672-0.987 1.565-0.987 2.679v0.207c0 0.746 0.143 1.411 0.428 1.995 0.29 0.589 0.695 1.047 1.215 1.374s1.1 0.49 1.74 0.49c1.017 0 1.802-0.325 2.354-0.973 0.557-0.649 0.835-1.567 0.835-2.755v-0.677h-4.881c0.051-0.617 0.255-1.105 0.615-1.464 0.364-0.359 0.819-0.539 1.367-0.539 0.769 0 1.395 0.311 1.878 0.932l0.905-0.863c-0.299-0.446-0.7-0.794-1.201-1.043-0.497-0.244-1.056-0.366-1.678-0.366zM80.147 930.911c-0.46 0-0.833-0.161-1.119-0.483-0.281-0.322-0.46-0.771-0.539-1.346h3.197v0.124c-0.037 0.562-0.186 0.985-0.449 1.27-0.262 0.29-0.626 0.435-1.091 0.435zM86.23 932.12l0.048-0.78c0.525 0.612 1.243 0.918 2.154 0.918 0.999 0 1.682-0.382 2.051-1.146 0.543 0.764 1.307 1.146 2.292 1.146 0.824 0 1.436-0.228 1.837-0.683 0.405-0.456 0.612-1.128 0.621-2.016v-4.909h-1.678v4.861c0 0.474-0.104 0.822-0.311 1.043s-0.55 0.331-1.029 0.331c-0.382 0-0.695-0.104-0.939-0.311-0.239-0.202-0.407-0.469-0.504-0.801l0.007-5.123h-1.678v4.916c-0.023 0.879-0.472 1.319-1.346 1.319-0.672 0-1.149-0.274-1.429-0.822v-5.413h-1.678v7.471h1.581zM100.246 924.511c-1.063 0-1.926 0.334-2.589 1.001-0.658 0.672-0.987 1.565-0.987 2.679v0.207c0 0.746 0.143 1.411 0.428 1.995 0.29 0.589 0.695 1.047 1.215 1.374s1.1 0.49 1.74 0.49c1.017 0 1.802-0.325 2.354-0.973 0.557-0.649 0.835-1.567 0.835-2.755v-0.677h-4.881c0.051-0.617 0.255-1.105 0.614-1.464 0.364-0.359 0.819-0.539 1.367-0.539 0.769 0 1.395 0.311 1.878 0.932l0.905-0.863c-0.299-0.446-0.7-0.794-1.201-1.043-0.497-0.244-1.056-0.366-1.678-0.366zM100.046 930.911c-0.46 0-0.833-0.161-1.119-0.483-0.281-0.322-0.46-0.771-0.539-1.346h3.197v0.124c-0.037 0.562-0.186 0.985-0.449 1.27-0.262 0.29-0.626 0.435-1.091 0.435zM106.108 932.12l0.048-0.863c0.552 0.667 1.277 1.001 2.175 1.001 1.556 0 2.348-0.891 2.375-2.672v-4.937h-1.678v4.84c0 0.474-0.104 0.824-0.311 1.049-0.203 0.23-0.536 0.345-1.001 0.345-0.677 0-1.181-0.306-1.512-0.918v-5.316h-1.678v7.471h1.581zM114.525 933.936v-1.816h1.319v-1.243h-1.319v-4.17c0-0.285 0.055-0.493 0.166-0.621 0.115-0.124 0.318-0.187 0.608-0.187 0.193 0 0.389 0.023 0.587 0.069v-1.298c-0.382-0.106-0.75-0.159-1.105-0.159-1.289 0-1.933 0.711-1.933 2.134v4.232h-1.229v1.243h1.229v1.816h1.678z" />
<glyph unicode="&#xe913;" horiz-adv-x="1552" d="M139.977 934.702l2.9-7.705 2.893 7.705h2.258v-10.053h-1.739v3.314l0.172 4.433-2.969-7.747h-1.249l-2.962 7.74 0.173-4.426v-3.314h-1.74v10.053h2.265zM151.845 928.384v-3.735h-1.746v10.053h3.846c1.123 0 2.014-0.292 2.671-0.877 0.663-0.585 0.995-1.358 0.995-2.32 0-0.985-0.324-1.752-0.973-2.299-0.645-0.548-1.55-0.822-2.714-0.822h-2.079zM151.845 929.786h2.1c0.621 0 1.095 0.145 1.422 0.435 0.326 0.295 0.49 0.718 0.49 1.27 0 0.543-0.166 0.976-0.497 1.298-0.332 0.327-0.787 0.495-1.367 0.504h-2.148v-3.507zM160.987 924.649h-1.739v10.053h1.739v-10.053z" />
<glyph unicode="&#xe914;" horiz-adv-x="1552" d="M186.94 926.99h-3.894l-0.815-2.341h-1.816l3.798 10.053h1.567l3.805-10.053h-1.823l-0.821 2.341zM183.535 928.398h2.914l-1.458 4.17-1.456-4.17zM190.253 928.44c0 1.151 0.267 2.074 0.801 2.769 0.534 0.7 1.249 1.049 2.147 1.049 0.792 0 1.432-0.276 1.92-0.829v3.825h1.678v-10.605h-1.519l-0.084 0.773c-0.501-0.608-1.171-0.911-2.009-0.911-0.874 0-1.583 0.352-2.126 1.056-0.539 0.704-0.808 1.662-0.808 2.872zM191.931 928.295c0-0.76 0.145-1.353 0.435-1.781 0.295-0.423 0.712-0.635 1.25-0.635 0.686 0 1.187 0.306 1.505 0.918v3.19c-0.309 0.598-0.806 0.898-1.492 0.898-0.543 0-0.962-0.216-1.256-0.649-0.295-0.428-0.442-1.075-0.442-1.94zM200.127 932.12l0.048-0.78c0.524 0.612 1.243 0.918 2.154 0.918 0.999 0 1.683-0.382 2.050-1.146 0.543 0.764 1.308 1.146 2.293 1.146 0.824 0 1.435-0.228 1.836-0.683 0.405-0.456 0.613-1.128 0.622-2.016v-4.909h-1.678v4.861c0 0.474-0.104 0.822-0.311 1.043s-0.55 0.331-1.029 0.331c-0.382 0-0.695-0.104-0.939-0.311-0.239-0.202-0.408-0.469-0.504-0.801l0.007-5.123h-1.678v4.916c-0.022 0.879-0.471 1.319-1.346 1.319-0.672 0-1.149-0.274-1.429-0.822v-5.413h-1.678v7.471h1.581zM212.637 924.649h-1.678v7.471h1.678v-7.471zM210.856 934.060c0 0.258 0.081 0.472 0.243 0.642 0.165 0.17 0.399 0.255 0.703 0.255s0.539-0.085 0.705-0.255c0.165-0.17 0.249-0.384 0.249-0.642 0-0.253-0.084-0.465-0.249-0.635-0.166-0.166-0.401-0.249-0.705-0.249s-0.539 0.083-0.703 0.249c-0.161 0.17-0.243 0.382-0.243 0.635zM218.659 926.679c0 0.299-0.125 0.527-0.374 0.683-0.244 0.156-0.652 0.295-1.222 0.414s-1.048 0.272-1.429 0.456c-0.838 0.405-1.256 0.992-1.256 1.761 0 0.644 0.271 1.183 0.814 1.616s1.234 0.649 2.072 0.649c0.893 0 1.613-0.221 2.161-0.663 0.553-0.442 0.828-1.015 0.828-1.719h-1.678c0 0.322-0.119 0.589-0.358 0.801-0.24 0.216-0.557 0.325-0.953 0.325-0.369 0-0.669-0.085-0.905-0.255-0.23-0.17-0.345-0.398-0.345-0.683 0-0.258 0.108-0.458 0.325-0.601s0.653-0.288 1.312-0.435c0.659-0.143 1.174-0.315 1.547-0.518 0.377-0.198 0.655-0.437 0.835-0.718 0.184-0.281 0.276-0.621 0.276-1.022 0-0.672-0.278-1.217-0.835-1.636-0.557-0.414-1.287-0.621-2.188-0.621-0.613 0-1.158 0.111-1.637 0.331s-0.852 0.525-1.118 0.911c-0.267 0.387-0.401 0.803-0.401 1.25h1.63c0.022-0.396 0.172-0.702 0.448-0.918 0.277-0.212 0.642-0.318 1.098-0.318 0.442 0 0.778 0.083 1.009 0.249 0.23 0.17 0.345 0.391 0.345 0.663zM225.963 926.679c0 0.299-0.125 0.527-0.374 0.683-0.244 0.156-0.65 0.295-1.222 0.414-0.57 0.12-1.046 0.272-1.429 0.456-0.838 0.405-1.256 0.992-1.256 1.761 0 0.644 0.271 1.183 0.814 1.616s1.234 0.649 2.072 0.649c0.893 0 1.613-0.221 2.161-0.663 0.553-0.442 0.828-1.015 0.828-1.719h-1.678c0 0.322-0.119 0.589-0.358 0.801-0.239 0.216-0.557 0.325-0.953 0.325-0.368 0-0.669-0.085-0.904-0.255-0.231-0.17-0.345-0.398-0.345-0.683 0-0.258 0.107-0.458 0.324-0.601s0.654-0.288 1.312-0.435c0.659-0.143 1.174-0.315 1.547-0.518 0.377-0.198 0.655-0.437 0.835-0.718 0.184-0.281 0.276-0.621 0.276-1.022 0-0.672-0.278-1.217-0.835-1.636-0.556-0.414-1.287-0.621-2.188-0.621-0.613 0-1.158 0.111-1.637 0.331s-0.852 0.525-1.118 0.911c-0.267 0.387-0.401 0.803-0.401 1.25h1.63c0.022-0.396 0.172-0.702 0.449-0.918 0.276-0.212 0.642-0.318 1.097-0.318 0.442 0 0.778 0.083 1.009 0.249 0.23 0.17 0.345 0.391 0.345 0.663zM230.865 924.649h-1.678v7.471h1.678v-7.471zM229.084 934.060c0 0.258 0.081 0.472 0.242 0.642 0.166 0.17 0.401 0.255 0.705 0.255s0.539-0.085 0.705-0.255c0.165-0.17 0.249-0.384 0.249-0.642 0-0.253-0.084-0.465-0.249-0.635-0.166-0.166-0.401-0.249-0.705-0.249s-0.539 0.083-0.705 0.249c-0.16 0.17-0.242 0.382-0.242 0.635zM232.384 928.453c0 0.732 0.145 1.39 0.435 1.975 0.29 0.589 0.698 1.040 1.222 1.353 0.526 0.318 1.128 0.476 1.809 0.476 1.009 0 1.825-0.325 2.451-0.973 0.632-0.649 0.972-1.51 1.023-2.582l0.007-0.394c0-0.736-0.144-1.395-0.429-1.975-0.28-0.58-0.686-1.029-1.215-1.346-0.524-0.318-1.132-0.476-1.823-0.476-1.053 0-1.898 0.35-2.533 1.049-0.63 0.704-0.946 1.641-0.946 2.81v0.083zM234.062 928.308c0-0.769 0.159-1.372 0.476-1.809 0.318-0.433 0.76-0.649 1.326-0.649 0.567 0 1.006 0.221 1.319 0.663 0.318 0.442 0.477 1.089 0.477 1.94 0 0.755-0.164 1.353-0.49 1.795-0.323 0.442-0.762 0.663-1.32 0.663-0.547 0-0.983-0.219-1.304-0.656-0.322-0.433-0.483-1.082-0.483-1.947zM242.306 932.12l0.048-0.863c0.553 0.667 1.277 1.001 2.175 1.001 1.555 0 2.347-0.891 2.374-2.672v-4.937h-1.678v4.84c0 0.474-0.103 0.824-0.31 1.049-0.203 0.23-0.536 0.345-1.002 0.345-0.676 0-1.181-0.306-1.512-0.918v-5.316h-1.678v7.471h1.581z" />
<glyph unicode="&#xe915;" horiz-adv-x="1552" d="M272.587 927.238c0 0.442-0.157 0.782-0.469 1.022-0.309 0.239-0.868 0.481-1.678 0.725s-1.454 0.516-1.934 0.815c-0.916 0.575-1.374 1.326-1.374 2.251 0 0.81 0.33 1.478 0.987 2.002 0.663 0.525 1.521 0.787 2.576 0.787 0.699 0 1.323-0.129 1.871-0.387s0.978-0.626 1.29-1.105c0.313-0.474 0.47-1.001 0.47-1.581h-1.74c0 0.525-0.165 0.934-0.497 1.229-0.326 0.299-0.795 0.449-1.408 0.449-0.57 0-1.015-0.122-1.333-0.366-0.313-0.244-0.469-0.585-0.469-1.022 0-0.368 0.17-0.677 0.51-0.925 0.341-0.244 0.903-0.483 1.685-0.718 0.782-0.23 1.411-0.495 1.885-0.794 0.474-0.295 0.821-0.635 1.042-1.022 0.222-0.382 0.332-0.831 0.332-1.346 0-0.838-0.323-1.505-0.967-2.002-0.64-0.493-1.509-0.739-2.61-0.739-0.727 0-1.396 0.134-2.009 0.401-0.607 0.271-1.082 0.644-1.422 1.119-0.336 0.474-0.503 1.026-0.503 1.657h1.746c0-0.571 0.189-1.013 0.566-1.326 0.378-0.313 0.919-0.469 1.623-0.469 0.608 0 1.064 0.122 1.368 0.366 0.308 0.249 0.462 0.575 0.462 0.981zM278.995 924.511c-1.064 0-1.927 0.334-2.59 1.001-0.658 0.672-0.986 1.565-0.986 2.679v0.207c0 0.746 0.143 1.411 0.428 1.995 0.29 0.589 0.695 1.047 1.215 1.374s1.101 0.49 1.74 0.49c1.017 0 1.802-0.325 2.354-0.973 0.556-0.649 0.835-1.567 0.835-2.755v-0.677h-4.882c0.051-0.617 0.256-1.105 0.615-1.464 0.363-0.359 0.819-0.539 1.367-0.539 0.768 0 1.394 0.311 1.877 0.932l0.905-0.863c-0.299-0.446-0.7-0.794-1.201-1.043-0.497-0.244-1.057-0.366-1.678-0.366zM278.794 930.911c-0.461 0-0.833-0.161-1.118-0.483-0.282-0.322-0.461-0.771-0.539-1.346h3.196v0.124c-0.037 0.562-0.186 0.985-0.448 1.27-0.263 0.29-0.627 0.435-1.091 0.435zM285.401 933.936v-1.816h1.319v-1.243h-1.319v-4.17c0-0.285 0.055-0.493 0.166-0.621 0.114-0.124 0.317-0.187 0.607-0.187 0.193 0 0.39 0.023 0.587 0.069v-1.298c-0.382-0.106-0.749-0.159-1.104-0.159-1.289 0-1.934 0.711-1.934 2.134v4.232h-1.229v1.243h1.229v1.816h1.678zM290.11 933.936v-1.816h1.319v-1.243h-1.319v-4.17c0-0.285 0.055-0.493 0.166-0.621 0.115-0.124 0.317-0.187 0.608-0.187 0.193 0 0.389 0.023 0.587 0.069v-1.298c-0.383-0.106-0.751-0.159-1.105-0.159-1.289 0-1.934 0.711-1.934 2.134v4.232h-1.229v1.243h1.229v1.816h1.678zM294.502 924.649h-1.678v7.471h1.678v-7.471zM292.72 934.060c0 0.258 0.080 0.472 0.242 0.642 0.166 0.17 0.401 0.255 0.705 0.255s0.539-0.085 0.703-0.255c0.166-0.17 0.249-0.384 0.249-0.642 0-0.253-0.082-0.465-0.249-0.635-0.165-0.166-0.399-0.249-0.703-0.249s-0.539 0.083-0.705 0.249c-0.161 0.17-0.242 0.382-0.242 0.635zM297.892 932.12l0.048-0.863c0.553 0.667 1.277 1.001 2.175 1.001 1.555 0 2.347-0.891 2.374-2.672v-4.937h-1.678v4.84c0 0.474-0.104 0.824-0.31 1.049-0.203 0.23-0.536 0.345-1.002 0.345-0.676 0-1.181-0.306-1.512-0.918v-5.316h-1.678v7.471h1.581zM303.912 928.44c0 1.16 0.272 2.085 0.815 2.776 0.547 0.695 1.273 1.043 2.174 1.043 0.852 0 1.521-0.297 2.009-0.891l0.077 0.753h1.512v-7.243c0-0.981-0.306-1.754-0.918-2.32-0.608-0.566-1.429-0.849-2.465-0.849-0.548 0-1.084 0.115-1.608 0.345-0.521 0.226-0.917 0.522-1.188 0.891l0.794 1.008c0.515-0.612 1.15-0.918 1.905-0.918 0.557 0 0.997 0.152 1.319 0.456 0.322 0.299 0.483 0.741 0.483 1.326v0.504c-0.483-0.539-1.128-0.808-1.933-0.808-0.876 0-1.591 0.348-2.148 1.043-0.551 0.695-0.828 1.657-0.828 2.886zM305.583 928.295c0-0.75 0.152-1.342 0.456-1.775 0.309-0.428 0.734-0.642 1.277-0.642 0.676 0 1.178 0.29 1.505 0.87v3.287c-0.317 0.566-0.814 0.849-1.491 0.849-0.553 0-0.983-0.219-1.291-0.656-0.304-0.437-0.456-1.082-0.456-1.933z" />
<glyph unicode="&#xe916;" horiz-adv-x="1552" d="M336.592 926.99h-3.894l-0.815-2.341h-1.816l3.798 10.053h1.567l3.805-10.053h-1.823l-0.821 2.341zM333.188 928.398h2.914l-1.458 4.17-1.456-4.17zM346.43 928.308c0-1.155-0.262-2.078-0.787-2.769-0.524-0.686-1.229-1.029-2.113-1.029-0.819 0-1.475 0.269-1.968 0.808v-3.542h-1.677v10.343h1.546l0.070-0.759c0.493 0.598 1.162 0.898 2.009 0.898 0.911 0 1.625-0.341 2.14-1.022 0.52-0.677 0.78-1.618 0.78-2.824v-0.104zM344.759 928.453c0 0.746-0.15 1.337-0.449 1.775-0.295 0.437-0.718 0.656-1.27 0.656-0.686 0-1.178-0.283-1.478-0.849v-3.314c0.304-0.58 0.801-0.87 1.492-0.87 0.534 0 0.951 0.214 1.25 0.642 0.303 0.433 0.455 1.086 0.455 1.961zM354.398 928.308c0-1.155-0.263-2.078-0.787-2.769-0.524-0.686-1.229-1.029-2.113-1.029-0.819 0-1.475 0.269-1.968 0.808v-3.542h-1.678v10.343h1.547l0.068-0.759c0.493 0.598 1.163 0.898 2.009 0.898 0.912 0 1.625-0.341 2.141-1.022 0.52-0.677 0.78-1.618 0.78-2.824v-0.104zM352.727 928.453c0 0.746-0.15 1.337-0.449 1.775-0.295 0.437-0.718 0.656-1.27 0.656-0.686 0-1.178-0.283-1.478-0.849v-3.314c0.304-0.58 0.801-0.87 1.492-0.87 0.534 0 0.95 0.214 1.249 0.642 0.304 0.433 0.456 1.086 0.456 1.961zM355.509 928.453c0 0.732 0.145 1.39 0.435 1.975 0.29 0.589 0.698 1.040 1.223 1.353 0.524 0.318 1.128 0.476 1.809 0.476 1.008 0 1.825-0.325 2.451-0.973 0.63-0.649 0.971-1.51 1.022-2.582l0.007-0.394c0-0.736-0.143-1.395-0.428-1.975-0.282-0.58-0.687-1.029-1.216-1.346-0.524-0.318-1.132-0.476-1.823-0.476-1.053 0-1.898 0.35-2.533 1.049-0.63 0.704-0.946 1.641-0.946 2.81v0.083zM357.187 928.308c0-0.769 0.159-1.372 0.476-1.809 0.318-0.433 0.76-0.649 1.326-0.649s1.006 0.221 1.32 0.663c0.317 0.442 0.476 1.089 0.476 1.94 0 0.755-0.164 1.353-0.49 1.795-0.323 0.442-0.762 0.663-1.319 0.663-0.548 0-0.983-0.219-1.306-0.656-0.322-0.433-0.483-1.082-0.483-1.947zM365.66 924.649h-1.678v7.471h1.678v-7.471zM363.878 934.060c0 0.258 0.080 0.472 0.242 0.642 0.166 0.17 0.401 0.255 0.705 0.255s0.539-0.085 0.703-0.255c0.166-0.17 0.249-0.384 0.249-0.642 0-0.253-0.082-0.465-0.249-0.635-0.165-0.166-0.401-0.249-0.703-0.249-0.304 0-0.539 0.083-0.705 0.249-0.161 0.17-0.242 0.382-0.242 0.635zM369.050 932.12l0.048-0.863c0.551 0.667 1.276 1.001 2.174 1.001 1.557 0 2.347-0.891 2.376-2.672v-4.937h-1.678v4.84c0 0.474-0.104 0.824-0.311 1.049-0.203 0.23-0.536 0.345-1 0.345-0.676 0-1.181-0.306-1.512-0.918v-5.316h-1.678v7.471h1.581zM377.466 933.936v-1.816h1.319v-1.243h-1.319v-4.17c0-0.285 0.055-0.493 0.166-0.621 0.114-0.124 0.317-0.187 0.607-0.187 0.193 0 0.389 0.023 0.587 0.069v-1.298c-0.382-0.106-0.749-0.159-1.104-0.159-1.289 0-1.934 0.711-1.934 2.134v4.232h-1.229v1.243h1.229v1.816h1.678zM381.65 932.12l0.048-0.78c0.524 0.612 1.243 0.918 2.154 0.918 0.999 0 1.683-0.382 2.050-1.146 0.543 0.764 1.308 1.146 2.293 1.146 0.824 0 1.435-0.228 1.836-0.683 0.405-0.456 0.613-1.128 0.621-2.016v-4.909h-1.677v4.861c0 0.474-0.104 0.822-0.311 1.043s-0.55 0.331-1.029 0.331c-0.382 0-0.695-0.104-0.939-0.311-0.239-0.202-0.408-0.469-0.504-0.801l0.007-5.123h-1.678v4.916c-0.022 0.879-0.471 1.319-1.346 1.319-0.673 0-1.149-0.274-1.429-0.822v-5.413h-1.678v7.471h1.581zM395.666 924.511c-1.063 0-1.925 0.334-2.589 1.001-0.658 0.672-0.987 1.565-0.987 2.679v0.207c0 0.746 0.143 1.411 0.429 1.995 0.29 0.589 0.694 1.047 1.215 1.374s1.099 0.49 1.739 0.49c1.018 0 1.803-0.325 2.354-0.973 0.557-0.649 0.835-1.567 0.835-2.755v-0.677h-4.881c0.051-0.617 0.256-1.105 0.614-1.464 0.364-0.359 0.82-0.539 1.367-0.539 0.769 0 1.395 0.311 1.878 0.932l0.905-0.863c-0.299-0.446-0.7-0.794-1.202-1.043-0.497-0.244-1.056-0.366-1.678-0.366zM395.466 930.911c-0.46 0-0.833-0.161-1.118-0.483-0.28-0.322-0.46-0.771-0.539-1.346h3.197v0.124c-0.037 0.562-0.186 0.985-0.449 1.27-0.262 0.29-0.626 0.435-1.091 0.435zM401.528 932.12l0.048-0.863c0.553 0.667 1.277 1.001 2.175 1.001 1.555 0 2.347-0.891 2.374-2.672v-4.937h-1.677v4.84c0 0.474-0.104 0.824-0.311 1.049-0.203 0.23-0.536 0.345-1.002 0.345-0.676 0-1.181-0.306-1.512-0.918v-5.316h-1.678v7.471h1.581zM409.945 933.936v-1.816h1.319v-1.243h-1.319v-4.17c0-0.285 0.054-0.493 0.165-0.621 0.115-0.124 0.318-0.187 0.608-0.187 0.193 0 0.389 0.023 0.587 0.069v-1.298c-0.382-0.106-0.751-0.159-1.105-0.159-1.288 0-1.933 0.711-1.933 2.134v4.232h-1.229v1.243h1.229v1.816h1.678z" />
<glyph unicode="&#xe917;" horiz-adv-x="1552" d="M432.873 928.384v-3.735h-1.748v10.053h3.846c1.123 0 2.014-0.292 2.671-0.877 0.663-0.585 0.995-1.358 0.995-2.32 0-0.985-0.324-1.752-0.973-2.299-0.645-0.548-1.548-0.822-2.714-0.822h-2.077zM432.873 929.786h2.099c0.621 0 1.096 0.145 1.422 0.435 0.326 0.295 0.49 0.718 0.49 1.27 0 0.543-0.166 0.976-0.497 1.298-0.331 0.327-0.787 0.495-1.367 0.504h-2.147v-3.507zM443.92 930.587c-0.222 0.037-0.449 0.055-0.683 0.055-0.769 0-1.287-0.295-1.554-0.884v-5.109h-1.678v7.471h1.603l0.041-0.835c0.405 0.649 0.966 0.973 1.685 0.973 0.239 0 0.437-0.032 0.593-0.097l-0.006-1.574zM448.131 924.511c-1.064 0-1.927 0.334-2.589 1.001-0.659 0.672-0.987 1.565-0.987 2.679v0.207c0 0.746 0.143 1.411 0.428 1.995 0.29 0.589 0.695 1.047 1.215 1.374 0.521 0.327 1.101 0.49 1.74 0.49 1.017 0 1.802-0.325 2.354-0.973 0.556-0.649 0.835-1.567 0.835-2.755v-0.677h-4.882c0.051-0.617 0.256-1.105 0.615-1.464 0.363-0.359 0.819-0.539 1.367-0.539 0.768 0 1.394 0.311 1.878 0.932l0.904-0.863c-0.299-0.446-0.7-0.794-1.201-1.043-0.497-0.244-1.057-0.366-1.678-0.366zM447.931 930.911c-0.461 0-0.833-0.161-1.118-0.483-0.282-0.322-0.461-0.771-0.539-1.346h3.197v0.124c-0.038 0.562-0.187 0.985-0.449 1.27-0.263 0.29-0.627 0.435-1.091 0.435zM456.624 926.679c0 0.299-0.125 0.527-0.374 0.683-0.244 0.156-0.65 0.295-1.222 0.414-0.57 0.12-1.046 0.272-1.429 0.456-0.837 0.405-1.256 0.992-1.256 1.761 0 0.644 0.272 1.183 0.814 1.616s1.234 0.649 2.072 0.649c0.893 0 1.613-0.221 2.161-0.663 0.553-0.442 0.828-1.015 0.828-1.719h-1.677c0 0.322-0.12 0.589-0.359 0.801-0.239 0.216-0.557 0.325-0.953 0.325-0.368 0-0.669-0.085-0.904-0.255-0.231-0.17-0.345-0.398-0.345-0.683 0-0.258 0.108-0.458 0.324-0.601s0.654-0.288 1.312-0.435c0.659-0.143 1.174-0.315 1.547-0.518 0.377-0.198 0.656-0.437 0.835-0.718 0.184-0.281 0.276-0.621 0.276-1.022 0-0.672-0.278-1.217-0.835-1.636-0.556-0.414-1.287-0.621-2.188-0.621-0.613 0-1.158 0.111-1.637 0.331s-0.851 0.525-1.118 0.911c-0.267 0.387-0.401 0.803-0.401 1.25h1.63c0.022-0.396 0.172-0.702 0.449-0.918 0.276-0.212 0.642-0.318 1.097-0.318 0.442 0 0.779 0.083 1.009 0.249 0.23 0.17 0.345 0.391 0.345 0.663zM462.81 925.85c0.418 0 0.766 0.122 1.043 0.366s0.423 0.545 0.442 0.905h1.58c-0.018-0.465-0.163-0.9-0.435-1.305-0.271-0.4-0.64-0.718-1.104-0.953s-0.967-0.352-1.506-0.352c-1.044 0-1.872 0.338-2.485 1.015s-0.918 1.611-0.918 2.803v0.173c0 1.137 0.304 2.046 0.911 2.727 0.608 0.686 1.436 1.029 2.486 1.029 0.887 0 1.611-0.26 2.167-0.78 0.562-0.516 0.857-1.195 0.884-2.037h-1.58c-0.019 0.428-0.166 0.78-0.442 1.056-0.272 0.276-0.62 0.414-1.043 0.414-0.543 0-0.963-0.198-1.257-0.594-0.295-0.391-0.444-0.987-0.448-1.788v-0.269c0-0.81 0.145-1.415 0.435-1.816 0.295-0.396 0.718-0.594 1.27-0.594zM471.054 930.587c-0.222 0.037-0.449 0.055-0.683 0.055-0.768 0-1.287-0.295-1.553-0.884v-5.109h-1.678v7.471h1.601l0.041-0.835c0.405 0.649 0.967 0.973 1.685 0.973 0.239 0 0.437-0.032 0.594-0.097l-0.007-1.574zM473.899 924.649h-1.678v7.471h1.678v-7.471zM472.117 934.060c0 0.258 0.081 0.472 0.242 0.642 0.166 0.17 0.401 0.255 0.705 0.255s0.539-0.085 0.705-0.255c0.165-0.17 0.249-0.384 0.249-0.642 0-0.253-0.084-0.465-0.249-0.635-0.166-0.166-0.401-0.249-0.705-0.249s-0.539 0.083-0.705 0.249c-0.16 0.17-0.242 0.382-0.242 0.635zM482.273 928.308c0-1.155-0.262-2.078-0.787-2.769-0.524-0.686-1.229-1.029-2.113-1.029-0.819 0-1.474 0.269-1.967 0.808v-3.542h-1.678v10.343h1.546l0.070-0.759c0.493 0.598 1.162 0.898 2.009 0.898 0.911 0 1.625-0.341 2.14-1.022 0.521-0.677 0.78-1.618 0.78-2.824v-0.104zM480.602 928.453c0 0.746-0.148 1.337-0.448 1.775-0.295 0.437-0.719 0.656-1.271 0.656-0.686 0-1.178-0.283-1.476-0.849v-3.314c0.303-0.58 0.8-0.87 1.491-0.87 0.534 0 0.951 0.214 1.25 0.642 0.304 0.433 0.455 1.086 0.455 1.961zM485.803 933.936v-1.816h1.319v-1.243h-1.319v-4.17c0-0.285 0.054-0.493 0.165-0.621 0.115-0.124 0.318-0.187 0.608-0.187 0.193 0 0.389 0.023 0.587 0.069v-1.298c-0.382-0.106-0.751-0.159-1.105-0.159-1.288 0-1.933 0.711-1.933 2.134v4.232h-1.229v1.243h1.229v1.816h1.678zM490.193 924.649h-1.678v7.471h1.678v-7.471zM488.411 934.060c0 0.258 0.081 0.472 0.243 0.642 0.165 0.17 0.399 0.255 0.703 0.255s0.539-0.085 0.705-0.255c0.165-0.17 0.249-0.384 0.249-0.642 0-0.253-0.084-0.465-0.249-0.635-0.166-0.166-0.401-0.249-0.705-0.249s-0.539 0.083-0.703 0.249c-0.161 0.17-0.243 0.382-0.243 0.635zM491.712 928.453c0 0.732 0.145 1.39 0.435 1.975 0.29 0.589 0.698 1.040 1.222 1.353 0.526 0.318 1.128 0.476 1.81 0.476 1.008 0 1.824-0.325 2.451-0.973 0.63-0.649 0.971-1.51 1.022-2.582l0.007-0.394c0-0.736-0.143-1.395-0.429-1.975-0.28-0.58-0.686-1.029-1.215-1.346-0.524-0.318-1.132-0.476-1.823-0.476-1.053 0-1.898 0.35-2.533 1.049-0.63 0.704-0.946 1.641-0.946 2.81v0.083zM493.39 928.308c0-0.769 0.159-1.372 0.476-1.809 0.318-0.433 0.76-0.649 1.326-0.649s1.006 0.221 1.319 0.663c0.318 0.442 0.477 1.089 0.477 1.94 0 0.755-0.164 1.353-0.49 1.795-0.323 0.442-0.762 0.663-1.319 0.663-0.548 0-0.983-0.219-1.306-0.656-0.322-0.433-0.483-1.082-0.483-1.947zM501.634 932.12l0.048-0.863c0.553 0.667 1.277 1.001 2.175 1.001 1.555 0 2.347-0.891 2.374-2.672v-4.937h-1.677v4.84c0 0.474-0.104 0.824-0.311 1.049-0.203 0.23-0.536 0.345-1.002 0.345-0.676 0-1.181-0.306-1.512-0.918v-5.316h-1.678v7.471h1.581z" />
<glyph unicode="&#xe918;" horiz-adv-x="1552" d="M1503.595 38.518c-16.91 0-30.638-13.729-30.638-30.638s13.728-30.638 30.638-30.638c16.91 0 30.638 13.729 30.638 30.638s-13.728 30.638-30.638 30.638z" />
<glyph unicode="&#xe919;" horiz-adv-x="1552" d="M1502.369-1.363v-4.798c0-0.366 0.271-0.665 0.613-0.665s0.613 0.298 0.613 0.665v4.798c0 0.366-0.271 0.665-0.613 0.665s-0.613-0.298-0.613-0.665z" />
<glyph unicode="&#xe91a;" horiz-adv-x="1552" d="M1507.354 8.446v0zM1499.141 16.724l-0.589 0.001v-0.001h0.589zM1507.354 16.724v0zM1493.237 8.248c0-5.525 4.49-10.011 10.004-10.011v1.178c-4.867 0-8.826 3.958-8.826 8.833h-1.178zM1503.241-1.763c5.527 0 10.016 4.486 10.016 10.011h-1.178c0-4.875-3.959-8.833-8.838-8.833v-1.178zM1498.552 17.381v-8.936h1.178v8.936h-1.178zM1498.552 8.446c0-2.592 2.097-4.696 4.69-4.696v1.178c-1.933 0-3.512 1.577-3.512 3.517h-1.178zM1503.241 3.75c2.592 0 4.702 2.103 4.702 4.696h-1.178c0-1.941-1.579-3.517-3.523-3.517v-1.178zM1507.354 8.446c0.589 0 0.589 0 0.589 0s0 0 0 0 0 0 0 0.001 0 0 0 0c0 0.001 0 0.002 0 0.004 0 0.004 0 0.008 0 0.014 0 0.013 0 0.031 0 0.055 0 0.048 0 0.119 0 0.21 0 0.181 0 0.443 0 0.764 0 0.64 0 1.514 0 2.447h-1.178c0-0.933 0-1.806 0-2.447 0-0.321 0-0.582 0-0.764 0-0.091 0-0.161 0-0.21 0-0.025 0-0.042 0-0.055 0-0.006 0-0.011 0-0.014 0-0.001 0-0.002 0-0.004 0 0 0 0 0 0s0-0.001 0-0.001 0 0 0 0 0 0 0.589 0zM1499.73 14.778c0 0.002 0 0.004 0 0.006s0 0.005 0 0.007c0 0.002 0 0.005 0 0.007s0 0.004 0 0.006 0 0.005 0 0.007 0 0.005 0 0.006c0 0.002 0 0.005 0 0.007s0 0.005 0 0.007c0 0.001 0 0.004 0 0.006s0 0.005 0 0.007c0 0.002 0 0.004 0 0.006s0 0.005 0 0.007c0 0.002 0 0.005 0 0.006s0 0.005 0 0.007 0 0.005 0 0.007 0 0.004 0 0.006 0 0.005 0 0.007 0 0.004 0 0.006 0 0.005 0 0.007 0 0.004 0 0.006 0 0.005 0 0.007c0 0.002 0 0.004 0 0.006s0 0.005 0 0.007c0 0.002 0 0.004 0 0.006s0 0.005 0 0.007c0 0.001 0 0.004 0 0.006s0 0.005 0 0.007c0 0.001 0 0.004 0 0.006s0 0.005 0 0.007c0 0.001 0 0.004 0 0.006s0 0.005 0 0.006c0 0.002 0 0.005 0 0.007s0 0.004 0 0.006c0 0.002 0 0.005 0 0.007s0 0.004 0 0.006 0 0.005 0 0.007c0 0.001 0 0.004 0 0.006s0 0.005 0 0.006c0 0.002 0 0.005 0 0.007s0 0.004 0 0.006 0 0.005 0 0.006 0 0.005 0 0.007 0 0.004 0 0.006 0 0.005 0 0.007c0 0.001 0 0.004 0 0.006s0 0.004 0 0.006c0 0.002 0 0.005 0 0.007s0 0.004 0 0.006 0 0.004 0 0.006 0 0.005 0 0.006c0 0.002 0 0.005 0 0.007s0 0.004 0 0.006c0 0.002 0 0.005 0 0.006s0 0.005 0 0.007c0 0.001 0 0.004 0 0.006s0 0.004 0 0.006c0 0.002 0 0.005 0 0.006s0 0.005 0 0.007c0 0.001 0 0.004 0 0.006s0 0.004 0 0.006c0 0.002 0 0.005 0 0.006s0 0.005 0 0.007c0 0.001 0 0.004 0 0.006s0 0.004 0 0.006c0 0.002 0 0.004 0 0.006s0 0.005 0 0.006c0 0.002 0 0.005 0 0.007s0 0.004 0 0.006c0 0.001 0 0.004 0 0.006s0 0.004 0 0.006c0 0.002 0 0.005 0 0.006s0 0.005 0 0.006c0 0.002 0 0.005 0 0.007s0 0.004 0 0.006c0 0.001 0 0.004 0 0.006s0 0.004 0 0.006 0 0.004 0 0.006 0 0.004 0 0.006 0 0.005 0 0.006 0 0.005 0 0.006c0 0.002 0 0.005 0 0.006s0 0.005 0 0.006c0 0.002 0 0.005 0 0.006s0 0.005 0 0.007c0 0.001 0 0.004 0 0.006s0 0.004 0 0.006c0 0.001 0 0.004 0 0.006s0 0.004 0 0.006c0 0.001 0 0.004 0 0.006s0 0.004 0 0.006c0 0.001 0 0.004 0 0.006s0 0.004 0 0.006c0 0.001 0 0.004 0 0.006s0 0.004 0 0.006c0 0.001 0 0.004 0 0.006s0 0.004 0 0.006c0 0.001 0 0.004 0 0.006s0 0.004 0 0.005c0 0.002 0 0.005 0 0.006s0 0.005 0 0.006c0 0.002 0 0.005 0 0.006s0 0.005 0 0.006c0 0.002 0 0.004 0 0.006s0 0.004 0 0.006c0 0.002 0 0.004 0 0.006s0 0.004 0 0.006c0 0.001 0 0.004 0 0.006s0 0.004 0 0.005c0 0.002 0 0.005 0 0.006s0 0.005 0 0.006c0 0.002 0 0.004 0 0.006s0 0.004 0 0.006c0 0.001 0 0.004 0 0.006s0 0.004 0 0.005c0 0.002 0 0.005 0 0.006s0 0.004 0 0.006 0 0.004 0 0.006 0 0.004 0 0.006c0 0.001 0 0.004 0 0.005s0 0.005 0 0.006c0 0.002 0 0.004 0 0.006s0 0.004 0 0.006c0 0.001 0 0.004 0 0.005s0 0.004 0 0.006 0 0.004 0 0.006 0 0.004 0 0.005c0 0.002 0 0.005 0 0.006s0 0.004 0 0.006c0 0.001 0 0.004 0 0.006s0 0.004 0 0.005c0 0.002 0 0.004 0 0.006s0 0.004 0 0.006c0 0.001 0 0.004 0 0.005s0 0.004 0 0.006c0 0.001 0 0.004 0 0.005s0 0.005 0 0.006c0 0.002 0 0.004 0 0.006s0 0.004 0 0.005c0 0.002 0 0.004 0 0.006s0 0.004 0 0.006c0 0.001 0 0.004 0 0.005s0 0.004 0 0.006c0 0.001 0 0.004 0 0.005s0 0.004 0 0.006c0 0.001 0 0.004 0 0.005s0 0.004 0 0.006c0 0.001 0 0.004 0 0.005s0 0.004 0 0.006c0 0.001 0 0.004 0 0.005s0 0.004 0 0.006c0 0.001 0 0.004 0 0.005s0 0.004 0 0.006c0 0.001 0 0.004 0 0.005s0 0.004 0 0.006c0 0.001 0 0.004 0 0.005s0 0.004 0 0.006c0 0.001 0 0.004 0 0.005s0 0.004 0 0.006c0 0.001 0 0.002 0 0.005 0 0.001 0 0.004 0 0.005s0 0.004 0 0.006c0 0.001 0 0.004 0 0.005s0 0.004 0 0.006c0 0.001 0 0.002 0 0.005 0 0.001 0 0.004 0 0.005s0 0.004 0 0.006c0 0.001 0 0.002 0 0.005 0 0.001 0 0.004 0 0.005s0 0.004 0 0.006c0 0.001 0 0.002 0 0.005 0 0.001 0 0.004 0 0.005s0 0.004 0 0.005c0 0.002 0 0.004 0 0.006s0 0.004 0 0.005 0 0.004 0 0.005 0 0.004 0 0.006c0 0.001 0 0.002 0 0.005 0 0.001 0 0.004 0 0.005s0 0.004 0 0.005c0 0.002 0 0.004 0 0.005s0 0.004 0 0.006c0 0.001 0 0.004 0 0.005s0 0.004 0 0.005c0 0.001 0 0.004 0 0.005s0 0.004 0 0.005c0 0.002 0 0.004 0 0.006s0 0.002 0 0.005c0 0.001 0 0.004 0 0.005s0 0.004 0 0.005c0 0.001 0 0.004 0 0.005s0 0.004 0 0.005c0 0.002 0 0.004 0 0.005s0 0.004 0 0.005c0 0.002 0 0.004 0 0.006s0 0.002 0 0.005c0 0.001 0 0.002 0 0.005 0 0.001 0 0.002 0 0.005 0 0.001 0 0.002 0 0.005 0 0.001 0 0.002 0 0.005 0 0.001 0 0.002 0 0.005 0 0.001 0 0.002 0 0.005 0 0.001 0 0.002 0 0.005 0 0.001 0 0.002 0 0.005 0 0.001 0 0.002 0 0.005 0 0.001 0 0.002 0 0.005 0 0.001 0 0.002 0 0.005 0 0.001 0 0.002 0 0.005 0 0.001 0 0.002 0 0.005 0 0.001 0 0.002 0 0.005 0 0.001 0 0.002 0 0.004s0 0.004 0 0.005 0 0.004 0 0.005 0 0.004 0 0.005 0 0.004 0 0.005c0 0.001 0 0.004 0 0.005s0 0.004 0 0.005c0 0.001 0 0.002 0 0.005 0 0.001 0 0.002 0 0.004s0 0.004 0 0.005 0 0.004 0 0.005 0 0.004 0 0.005c0 0.001 0 0.002 0 0.005 0 0.001 0 0.002 0 0.005 0 0.001 0 0.002 0 0.004s0 0.004 0 0.005 0 0.004 0 0.005c0 0.001 0 0.002 0 0.005 0 0.001 0 0.002 0 0.004s0 0.004 0 0.005 0 0.004 0 0.005c0 0.001 0 0.002 0 0.004s0 0.004 0 0.005 0 0.004 0 0.005c0 0.001 0 0.002 0 0.004s0 0.004 0 0.005 0 0.004 0 0.005c0 0.001 0 0.002 0 0.004s0 0.004 0 0.005 0 0.002 0 0.005c0 0.001 0 0.002 0 0.004s0 0.004 0 0.005 0 0.002 0 0.004 0 0.004 0 0.005c0 0.001 0 0.002 0 0.005 0 0.001 0 0.002 0 0.004s0 0.004 0 0.005c0 0.001 0 0.002 0 0.004s0 0.004 0 0.005c0 0.001 0 0.002 0 0.004s0 0.004 0 0.005c0 0.001 0 0.002 0 0.004s0 0.004 0 0.005c0 0.001 0 0.002 0 0.004s0 0.004 0 0.005c0 0.001 0 0.002 0 0.004s0 0.002 0 0.005c0 0.001 0 0.002 0 0.004s0 0.002 0 0.004 0 0.004 0 0.005c0 0.001 0 0.002 0 0.004s0 0.002 0 0.005c0 0.001 0 0.002 0 0.004s0 0.002 0 0.004 0 0.004 0 0.005 0 0.002 0 0.004 0 0.002 0 0.004 0 0.004 0 0.005 0 0.002 0 0.004 0 0.002 0 0.004 0 0.002 0 0.004 0 0.004 0 0.005 0 0.002 0 0.004 0 0.002 0 0.004 0 0.002 0 0.004 0 0.004 0 0.005c0 0.001 0 0.002 0 0.004s0 0.002 0 0.004 0 0.002 0 0.004 0 0.002 0 0.004 0 0.004 0 0.005c0 0.001 0 0.002 0 0.004s0 0.002 0 0.004 0 0.002 0 0.004 0 0.002 0 0.004 0 0.002 0 0.004 0 0.002 0 0.004 0 0.002 0 0.004 0 0.004 0 0.005 0 0.002 0 0.004 0 0.002 0 0.004 0 0.002 0 0.004 0 0.002 0 0.004 0 0.002 0 0.004 0 0.002 0 0.004 0 0.002 0 0.004 0 0.002 0 0.004 0 0.002 0 0.004 0 0.002 0 0.004 0 0.002 0 0.004 0 0.002 0 0.004c0 0 0 0.001 0 0.002s0 0.002 0 0.004c0 0.001 0 0.002 0 0.004s0 0.002 0 0.004 0 0.002 0 0.004 0 0.002 0 0.004 0 0.002 0 0.004 0 0.002 0 0.004c0 0 0 0.001 0 0.002s0 0.002 0 0.004c0 0.001 0 0.002 0 0.004s0 0.002 0 0.004 0 0.002 0 0.004c0 0 0 0.001 0 0.002s0 0.002 0 0.004c0 0.001 0 0.002 0 0.004s0 0.002 0 0.004c0 0 0 0.001 0 0.002s0 0.002 0 0.004c0 0.001 0 0.002 0 0.004s0 0.001 0 0.002 0 0.002 0 0.004c0 0.001 0 0.002 0 0.004s0 0.001 0 0.002 0 0.002 0 0.004c0 0.001 0 0.002 0 0.004 0 0 0 0.001 0 0.002s0 0.002 0 0.004c0 0.001 0 0.001 0 0.002s0 0.002 0 0.004c0 0.001 0 0.002 0 0.002s0 0.002 0 0.004 0 0.002 0 0.004 0 0.001 0 0.002 0 0.002 0 0.004c0 0 0 0.001 0 0.002s0 0.002 0 0.004c0 0 0 0.001 0 0.002s0 0.002 0 0.002 0 0.002 0 0.004c0 0.001 0 0.002 0 0.002s0 0.002 0 0.004 0 0.001 0 0.002 0 0.002 0 0.004c0 0 0 0.001 0 0.002s0 0.002 0 0.002 0 0.002 0 0.004c0 0 0 0.001 0 0.002s0 0.002 0 0.002 0 0.002 0 0.004c0 0 0 0.001 0 0.002s0 0.001 0 0.002 0 0.002 0 0.004c0 0 0 0.001 0 0.002s0 0.001 0 0.002 0 0.002 0 0.002 0 0.002 0 0.004c0 0 0 0.001 0 0.002s0 0.001 0 0.002 0 0.001 0 0.002 0 0.002 0 0.002 0 0.002 0 0.002 0 0.002 0 0.004c0 0 0 0.001 0 0.002s0 0.001 0 0.002 0 0.001 0 0.002 0 0.001 0 0.002 0 0.001 0 0.002 0 0.002 0 0.002 0 0.002 0 0.002 0 0.002 0 0.002 0 0.002 0 0.002 0 0.002 0 0.002 0 0.002 0 0.002 0 0.002 0 0.002 0 0.002 0 0.002 0 0.002 0 0.002 0 0.002 0 0.002 0 0.002 0 0.002 0 0.002 0 0.002 0 0.001 0 0.002 0 0.001 0 0.002 0 0.001 0 0.002 0 0.001 0 0.002 0 0.001 0 0.002 0 0.001 0 0.001 0 0.002 0 0.002 0 0.002 0 0.002 0 0.001 0 0.002 0 0.001 0 0.002 0 0.001 0 0.001 0 0.002 0 0.002 0 0.001 0 0.002 0 0.001 0 0.002 0 0.001 0 0.001 0 0.002 0 0.002 0 0.001 0 0.002 0 0.001 0 0.002c0 0 0 0.001 0 0.001s0 0.001 0 0.002c0 0 0 0.001 0 0.002s0 0.001 0 0.001 0 0.001 0 0.002c0 0 0 0.001 0 0.001s0 0.001 0 0.002c0 0 0 0.001 0 0.002s0 0.001 0 0.001 0 0.001 0 0.002c0 0 0 0.001 0 0.001s0 0.001 0 0.002c0 0 0 0.001 0 0.001s0 0.001 0 0.002c0 0 0 0.001 0 0.001s0 0.001 0 0.002c0 0 0 0.001 0 0.001s0 0.001 0 0.002c0 0 0 0 0 0.001s0 0.001 0 0.001 0 0.001 0 0.002c0 0 0 0.001 0 0.001s0 0.001 0 0.001 0 0.001 0 0.002 0 0.001 0 0.001 0 0.001 0 0.002c0 0 0 0 0 0.001s0 0.001 0 0.001 0 0.001 0 0.001 0 0.001 0 0.002 0 0 0 0.001 0 0.001 0 0.001 0 0.001 0 0.001 0 0.001 0 0.002c0 0 0 0 0 0.001s0 0.001 0 0.001 0 0.001 0 0.001 0 0.001 0 0.001 0 0.001 0 0.001 0 0.001 0 0.002 0 0 0 0.001 0 0 0 0.001 0 0 0 0.001 0 0.001 0 0.001 0 0.001 0 0.001 0 0.001 0 0.001 0 0.001 0 0.001 0 0.001 0 0.001 0 0.001 0 0.001 0 0.001 0 0.001 0 0.001 0 0.001 0 0.001 0 0.001 0 0.001 0 0.001 0 0 0 0.001 0 0 0 0.001 0 0 0 0.001 0 0 0 0c0 0.001 0 0.001 0 0.001s0 0.001 0 0.001 0 0.001 0 0.001 0 0.001 0 0.001 0 0 0 0.001 0 0 0 0 0 0.001 0 0.001 0 0.001 0 0.001 0 0 0 0.001 0 0 0 0c0 0.001 0 0.001 0 0.001s0 0.001 0 0.001 0 0 0 0c0 0.001 0 0.001 0 0.001s0 0.001 0 0.001 0 0 0 0c0 0.001 0 0.001 0 0.001s0 0 0 0.001 0 0 0 0 0 0.001 0 0.001c0 0 0 0 0 0s0 0.001 0 0.001 0 0 0 0c0 0.001 0 0.001 0 0.001s0 0 0 0 0 0.001 0 0.001 0 0 0 0c0 0.001 0 0.001 0 0.001s0 0 0 0 0 0.001 0 0.001 0 0 0 0 0 0 0 0.001c0 0 0 0 0 0s0 0 0 0 0 0.001 0 0.001 0 0 0 0 0 0 0 0 0 0.001 0 0.001 0 0 0 0 0 0 0 0 0 0 0 0 0 0.001 0 0.001 0 0 0 0 0 0 0 0 0 0 0 0 0 0 0 0.001c0 0 0 0 0 0s0 0 0 0 0 0 0 0 0 0 0 0 0 0 0 0 0 0 0 0 0 0 0 0 0 0 0 0 0 0 0 0 0 0 0 0 0 0-0.589 0-0.589 0-0.589 0 0 0 0 0 0 0 0 0 0 0 0 0 0 0 0 0 0 0 0 0 0 0 0 0 0 0 0 0 0 0 0 0 0 0 0 0 0 0 0 0 0-0.001 0-0.001 0 0 0 0 0 0 0 0 0 0 0 0 0 0 0-0.001c0 0 0 0 0 0s0 0 0 0 0 0 0 0 0-0.001 0-0.001 0 0 0 0 0 0 0 0 0-0.001 0-0.001 0 0 0 0 0 0 0 0 0-0.001 0-0.001 0 0 0 0 0-0.001 0-0.001c0 0 0 0 0 0s0 0 0-0.001 0 0 0 0 0 0 0-0.001c0 0 0 0 0 0s0 0 0-0.001 0 0 0 0 0 0 0-0.001c0 0 0 0 0 0s0-0.001 0-0.001 0 0 0 0c0-0.001 0-0.001 0-0.001s0 0 0-0.001 0 0 0 0 0-0.001 0-0.001c0 0 0 0 0-0.001s0 0 0 0 0-0.001 0-0.001c0 0 0 0 0-0.001s0 0 0 0c0-0.001 0-0.001 0-0.001s0-0.001 0-0.001 0 0 0-0.001 0 0 0 0 0-0.001 0-0.001 0-0.001 0-0.001 0-0.001 0-0.001 0 0 0-0.001 0 0 0-0.001 0 0 0 0c0-0.001 0-0.001 0-0.001s0-0.001 0-0.001 0-0.001 0-0.001 0-0.001 0-0.001 0-0.001 0-0.001 0-0.001 0-0.001 0-0.001 0-0.001 0-0.001 0-0.001 0-0.001 0-0.001 0-0.001 0-0.001 0-0.001 0-0.001 0-0.001 0-0.001 0-0.001 0-0.001 0-0.001 0-0.001 0-0.001 0-0.001 0-0.001 0-0.001 0-0.001 0-0.002 0 0 0-0.001 0 0 0-0.001 0-0.001 0-0.001 0-0.001 0-0.001 0-0.001 0-0.001 0-0.001 0-0.002c0 0 0 0 0-0.001s0-0.001 0-0.001 0-0.001 0-0.001 0-0.001 0-0.002 0 0 0-0.001 0-0.001 0-0.001 0-0.001 0-0.001 0-0.001 0-0.002c0 0 0-0.001 0-0.001s0-0.001 0-0.002c0 0 0 0 0-0.001s0-0.001 0-0.001 0-0.001 0-0.002c0 0 0-0.001 0-0.001s0-0.001 0-0.001 0-0.001 0-0.002 0-0.001 0-0.001 0-0.001 0-0.002c0 0 0-0.001 0-0.001s0-0.001 0-0.002c0 0 0-0.001 0-0.001s0-0.001 0-0.002c0 0 0-0.001 0-0.001s0-0.001 0-0.002c0 0 0-0.001 0-0.001s0-0.002 0-0.002 0-0.001 0-0.002 0-0.001 0-0.001 0-0.001 0-0.002 0-0.001 0-0.001 0-0.002 0-0.002 0-0.001 0-0.002 0-0.001 0-0.001 0-0.002 0-0.002 0-0.001 0-0.002 0-0.001 0-0.002 0-0.001 0-0.001 0-0.001 0-0.002 0-0.001 0-0.002 0-0.001 0-0.002c0 0 0-0.001 0-0.001s0-0.001 0-0.002 0-0.001 0-0.002 0-0.001 0-0.002c0 0 0-0.001 0-0.002s0-0.001 0-0.001 0-0.002 0-0.002 0-0.001 0-0.002 0-0.001 0-0.002 0-0.001 0-0.002 0-0.001 0-0.002c0 0 0-0.001 0-0.002s0-0.001 0-0.002 0-0.001 0-0.002 0-0.001 0-0.002 0-0.001 0-0.002 0-0.001 0-0.002 0-0.001 0-0.002 0-0.001 0-0.002 0-0.001 0-0.002 0-0.001 0-0.002 0-0.001 0-0.002 0-0.001 0-0.002 0-0.001 0-0.002 0-0.001 0-0.002 0-0.001 0-0.002 0-0.002 0-0.002 0-0.002 0-0.002 0-0.002 0-0.004c0 0 0-0.001 0-0.002s0-0.001 0-0.002 0-0.001 0-0.002 0-0.002 0-0.002 0-0.002 0-0.002 0-0.002 0-0.004c0 0 0-0.001 0-0.002s0-0.001 0-0.002 0-0.002 0-0.002 0-0.002 0-0.004c0-0.001 0-0.001 0-0.002s0-0.002 0-0.002 0-0.002 0-0.004c0 0 0-0.001 0-0.002s0-0.002 0-0.002 0-0.002 0-0.004c0 0 0-0.001 0-0.002s0-0.002 0-0.002 0-0.002 0-0.004c0-0.001 0-0.001 0-0.002s0-0.002 0-0.004c0 0 0-0.001 0-0.002s0-0.002 0-0.004c0 0 0-0.001 0-0.002s0-0.002 0-0.002 0-0.002 0-0.004c0-0.001 0-0.002 0-0.002s0-0.002 0-0.004 0-0.002 0-0.002 0-0.002 0-0.004c0-0.001 0-0.002 0-0.004 0 0 0-0.001 0-0.002s0-0.002 0-0.004c0-0.001 0-0.001 0-0.002s0-0.002 0-0.004c0-0.001 0-0.002 0-0.002s0-0.002 0-0.004 0-0.002 0-0.004 0-0.001 0-0.002 0-0.002 0-0.004c0-0.001 0-0.002 0-0.004s0-0.001 0-0.002 0-0.002 0-0.004c0-0.001 0-0.002 0-0.004s0-0.002 0-0.002 0-0.002 0-0.004c0-0.001 0-0.002 0-0.004s0-0.002 0-0.004 0-0.002 0-0.002 0-0.002 0-0.004 0-0.002 0-0.004 0-0.002 0-0.004 0-0.002 0-0.004 0-0.002 0-0.002 0-0.002 0-0.004 0-0.002 0-0.004 0-0.002 0-0.004 0-0.002 0-0.004 0-0.002 0-0.004 0-0.002 0-0.004 0-0.002 0-0.004 0-0.002 0-0.002 0-0.002 0-0.004c0-0.001 0-0.002 0-0.004s0-0.002 0-0.004 0-0.002 0-0.004 0-0.002 0-0.004 0-0.002 0-0.004 0-0.002 0-0.004 0-0.002 0-0.004 0-0.002 0-0.004 0-0.002 0-0.004 0-0.002 0-0.004 0-0.002 0-0.004 0-0.002 0-0.005c0-0.001 0-0.002 0-0.004s0-0.002 0-0.004 0-0.002 0-0.004 0-0.002 0-0.004 0-0.002 0-0.004 0-0.002 0-0.004 0-0.002 0-0.004 0-0.002 0-0.005c0-0.001 0-0.002 0-0.004s0-0.002 0-0.004 0-0.002 0-0.004 0-0.002 0-0.004 0-0.002 0-0.005c0-0.001 0-0.002 0-0.004s0-0.002 0-0.004 0-0.002 0-0.004 0-0.002 0-0.005c0-0.001 0-0.002 0-0.004s0-0.002 0-0.004 0-0.002 0-0.004 0-0.004 0-0.005c0-0.001 0-0.002 0-0.004s0-0.002 0-0.004 0-0.004 0-0.005 0-0.002 0-0.004 0-0.002 0-0.004c0-0.002 0-0.004 0-0.005s0-0.002 0-0.004c0-0.001 0-0.002 0-0.005 0-0.001 0-0.002 0-0.004s0-0.002 0-0.004 0-0.004 0-0.005c0-0.001 0-0.002 0-0.004s0-0.004 0-0.005c0-0.001 0-0.002 0-0.004s0-0.004 0-0.005c0-0.001 0-0.002 0-0.004s0-0.004 0-0.005c0-0.001 0-0.002 0-0.004s0-0.004 0-0.005c0-0.001 0-0.002 0-0.004s0-0.004 0-0.005c0-0.001 0-0.002 0-0.004s0-0.004 0-0.005 0-0.002 0-0.005c0-0.001 0-0.002 0-0.004s0-0.002 0-0.005c0-0.001 0-0.002 0-0.004s0-0.004 0-0.005 0-0.002 0-0.005c0-0.001 0-0.002 0-0.004s0-0.004 0-0.005c0-0.001 0-0.002 0-0.005 0-0.001 0-0.002 0-0.004s0-0.004 0-0.005c0-0.001 0-0.002 0-0.005 0-0.001 0-0.002 0-0.004s0-0.004 0-0.005c0-0.001 0-0.002 0-0.005 0-0.001 0-0.002 0-0.004s0-0.004 0-0.005 0-0.004 0-0.005c0-0.001 0-0.002 0-0.005 0-0.001 0-0.002 0-0.004s0-0.004 0-0.005 0-0.004 0-0.005 0-0.004 0-0.005c0-0.001 0-0.002 0-0.005 0-0.001 0-0.002 0-0.005 0-0.001 0-0.002 0-0.004s0-0.004 0-0.005 0-0.004 0-0.005c0-0.001 0-0.004 0-0.005s0-0.004 0-0.005c0-0.001 0-0.002 0-0.005 0-0.001 0-0.002 0-0.005 0-0.001 0-0.002 0-0.005 0-0.001 0-0.002 0-0.004s0-0.004 0-0.005 0-0.004 0-0.005 0-0.004 0-0.005 0-0.004 0-0.005 0-0.004 0-0.005 0-0.004 0-0.005 0-0.004 0-0.005 0-0.004 0-0.005 0-0.004 0-0.005 0-0.004 0-0.005 0-0.004 0-0.005 0-0.004 0-0.005 0-0.004 0-0.005 0-0.004 0-0.005 0-0.004 0-0.005 0-0.004 0-0.006c0-0.001 0-0.002 0-0.005 0-0.001 0-0.002 0-0.005 0-0.001 0-0.002 0-0.005 0-0.001 0-0.004 0-0.005s0-0.004 0-0.005c0-0.001 0-0.004 0-0.005s0-0.004 0-0.005c0-0.002 0-0.004 0-0.006s0-0.002 0-0.005c0-0.001 0-0.004 0-0.005s0-0.004 0-0.005c0-0.001 0-0.004 0-0.005s0-0.004 0-0.006c0-0.001 0-0.002 0-0.005 0-0.001 0-0.004 0-0.005s0-0.004 0-0.005c0-0.002 0-0.004 0-0.005s0-0.004 0-0.006c0-0.001 0-0.004 0-0.005s0-0.004 0-0.005c0-0.002 0-0.004 0-0.006s0-0.002 0-0.005c0-0.001 0-0.004 0-0.005s0-0.004 0-0.005c0-0.002 0-0.004 0-0.006s0-0.004 0-0.005c0-0.002 0-0.004 0-0.005s0-0.004 0-0.006c0-0.001 0-0.004 0-0.005s0-0.004 0-0.005c0-0.002 0-0.004 0-0.006s0-0.004 0-0.005c0-0.002 0-0.004 0-0.006s0-0.004 0-0.005c0-0.002 0-0.004 0-0.005s0-0.004 0-0.006c0-0.001 0-0.004 0-0.005s0-0.004 0-0.006c0-0.001 0-0.004 0-0.005s0-0.004 0-0.006c0-0.001 0-0.004 0-0.005s0-0.004 0-0.006c0-0.001 0-0.004 0-0.005s0-0.004 0-0.006c0-0.001 0-0.004 0-0.005s0-0.004 0-0.006c0-0.001 0-0.004 0-0.005s0-0.004 0-0.006c0-0.001 0-0.004 0-0.005s0-0.004 0-0.006c0-0.001 0-0.004 0-0.005s0-0.004 0-0.006c0-0.001 0-0.004 0-0.005s0-0.005 0-0.006c0-0.002 0-0.004 0-0.006s0-0.004 0-0.005c0-0.002 0-0.004 0-0.006s0-0.004 0-0.006c0-0.001 0-0.004 0-0.005s0-0.004 0-0.006c0-0.001 0-0.004 0-0.005s0-0.005 0-0.006c0-0.002 0-0.004 0-0.006s0-0.004 0-0.005c0-0.002 0-0.005 0-0.006s0-0.004 0-0.006c0-0.001 0-0.004 0-0.006s0-0.004 0-0.005c0-0.002 0-0.004 0-0.006s0-0.004 0-0.006c0-0.001 0-0.004 0-0.005s0-0.005 0-0.006c0-0.002 0-0.004 0-0.006s0-0.004 0-0.006c0-0.001 0-0.004 0-0.005s0-0.005 0-0.006c0-0.002 0-0.004 0-0.006s0-0.004 0-0.006c0-0.001 0-0.004 0-0.006s0-0.004 0-0.005c0-0.002 0-0.005 0-0.006s0-0.004 0-0.006 0-0.004 0-0.006 0-0.004 0-0.006c0-0.001 0-0.004 0-0.006s0-0.004 0-0.005c0-0.002 0-0.005 0-0.006s0-0.005 0-0.006c0-0.002 0-0.004 0-0.006s0-0.004 0-0.006c0-0.002 0-0.004 0-0.006s0-0.004 0-0.006c0-0.001 0-0.004 0-0.006s0-0.004 0-0.006c0-0.001 0-0.004 0-0.006s0-0.004 0-0.005c0-0.002 0-0.005 0-0.006s0-0.005 0-0.006c0-0.002 0-0.005 0-0.006s0-0.005 0-0.006c0-0.002 0-0.005 0-0.006s0-0.005 0-0.006c0-0.002 0-0.005 0-0.006s0-0.005 0-0.006c0-0.002 0-0.005 0-0.006s0-0.005 0-0.006c0-0.002 0-0.005 0-0.006s0-0.005 0-0.006c0-0.002 0-0.005 0-0.006s0-0.005 0-0.007c0-0.001 0-0.004 0-0.006s0-0.004 0-0.006c0-0.001 0-0.004 0-0.006s0-0.004 0-0.006c0-0.001 0-0.004 0-0.006s0-0.004 0-0.006c0-0.002 0-0.004 0-0.006s0-0.005 0-0.006c0-0.002 0-0.005 0-0.006s0-0.005 0-0.006c0-0.002 0-0.005 0-0.007s0-0.004 0-0.006c0-0.001 0-0.004 0-0.006s0-0.004 0-0.006c0-0.002 0-0.005 0-0.006s0-0.005 0-0.006c0-0.002 0-0.005 0-0.007s0-0.004 0-0.006 0-0.004 0-0.006 0-0.004 0-0.006 0-0.005 0-0.006 0-0.005 0-0.007c0-0.001 0-0.004 0-0.006s0-0.004 0-0.006c0-0.002 0-0.005 0-0.006s0-0.005 0-0.007c0-0.001 0-0.004 0-0.006s0-0.004 0-0.006c0-0.002 0-0.005 0-0.006s0-0.005 0-0.007c0-0.001 0-0.004 0-0.006s0-0.004 0-0.006c0-0.002 0-0.005 0-0.007s0-0.004 0-0.006 0-0.004 0-0.006 0-0.005 0-0.006c0-0.002 0-0.005 0-0.007s0-0.004 0-0.006c0-0.002 0-0.005 0-0.006s0-0.005 0-0.007 0-0.004 0-0.006c0-0.002 0-0.005 0-0.007s0-0.004 0-0.006 0-0.005 0-0.006 0-0.005 0-0.007c0-0.001 0-0.004 0-0.006s0-0.005 0-0.006c0-0.002 0-0.005 0-0.007s0-0.005 0-0.006c0-0.002 0-0.005 0-0.007s0-0.004 0-0.006c0-0.002 0-0.005 0-0.007s0-0.004 0-0.006 0-0.005 0-0.006 0-0.005 0-0.007 0-0.005 0-0.006 0-0.005 0-0.007 0-0.005 0-0.006c0-0.002 0-0.005 0-0.007s0-0.004 0-0.006c0-0.002 0-0.005 0-0.007s0-0.004 0-0.006c0-0.002 0-0.005 0-0.007s0-0.004 0-0.006c0-0.002 0-0.005 0-0.007s0-0.005 0-0.006c0-0.002 0-0.005 0-0.007s0-0.005 0-0.006c0-0.002 0-0.005 0-0.007s0-0.005 0-0.007c0-0.001 0-0.004 0-0.006s0-0.005 0-0.007c0-0.002 0-0.004 0-0.006s0-0.005 0-0.007c0-0.002 0-0.005 0-0.006s0-0.005 0-0.007 0-0.005 0-0.007 0-0.004 0-0.006 0-0.005 0-0.007 0-0.005 0-0.006c0-0.002 0-0.005 0-0.007s0-0.005 0-0.007c0-0.002 0-0.004 0-0.006h1.178zM1499.73 16.724c0 1.942 1.579 3.519 3.512 3.519v1.178c-2.592 0-4.69-2.105-4.69-4.696l1.178-0.001zM1503.241 20.243c1.944 0 3.523-1.577 3.523-3.519h1.178c0 2.592-2.109 4.697-4.702 4.697v-1.178zM1507.354 16.724c-0.589 0-0.589 0-0.589 0s0 0 0 0 0 0 0 0 0-0.001 0-0.001 0-0.004 0-0.006 0-0.012 0-0.021c0-0.018 0-0.046 0-0.081 0-0.072 0-0.178 0-0.311 0-0.269 0-0.649 0-1.104 0-0.909 0-2.109 0-3.279h1.178c0 1.17 0 2.371 0 3.279 0 0.455 0 0.835 0 1.104 0 0.133 0 0.239 0 0.311 0 0.035 0 0.064 0 0.081 0 0.009 0 0.016 0 0.021 0 0.002 0 0.005 0 0.006s0 0.001 0 0.001 0 0 0 0 0 0 0 0 0 0-0.589 0z" />
<glyph unicode="&#xe91b;" glyph-name="Exclude" d="M975.081 666.683c-82.018 173.381-258.544 293.317-463.081 293.317-67.285 0-131.541-12.98-190.397-36.571 3.536 0 7.072-0.076 10.607-0.227 123.855-5.304 239.387-95.607 239.387-211.304 146.588 104.295 336.654 63.6 403.485-45.214zM769.225 5.206c152.363 88.699 254.775 253.788 254.775 442.794 0 59.101-10.015 115.862-28.434 168.68 11.694-51.622-1.044-112.774-49.533-178.236-103.252-139.387-237.375-251.417-366.674-330.621 77.73-50.975 147.542-86.802 189.866-102.617zM80.844 724.248c-51.168-79.695-80.844-174.507-80.844-276.248 0-282.771 229.23-512 512-512 90.034 0 174.637 23.237 248.144 64.045-32.707 2.556-118.301 32.764-218.419 85.561-87.818-49.906-171.728-84.111-240.198-100.844 76.546 30.843 149.812 69.767 217.514 113.062-192.557 105.918-426.595 290.869-444.624 520.85-3.039 38.771-0.541 73.991 6.427 105.573zM172.618 562.741c-37.968 118.082-5.598 203.089 61.381 254.808 86.445 66.751 218.318 44.32 287.81-161.586-91.222-43.504-219.332-142.223-279.161-190.404-7.137-5.747-13.245-10.711-18.123-14.684-21.817 36.139-39.585 73.544-51.907 111.866zM927.609 550.31c4.571 63.866-24.551 135.575-135.037 149.158h-6.287c-214.553 6.126-370.7-224.422-421.953-340.462 20.18 10.121 38.788 26.694 59.633 45.257 26.575 23.667 56.787 50.573 98.529 71.471 74.473 37.29-30.691-155.369-30.691-155.369-24.556-43.504 262.033 74.576 411.464 155.369 14.447 28.275 22.843 53.588 24.343 74.576zM903.266 475.734c-69.636-60.076-251.666-174.92-399.188-229.949-21.619-8.065-37.753-12.284-49.418-13.095-24.117-1.679-29.147 11.203-24.072 34.8 5.718 26.579 11.981 54.321 30.523 102.593-27.189-16.572-86.913-55.935-108.302-80.794 63.926-65.634 132.854-117.948 204.059-166.433 166.957 114.217 294.994 252.289 346.399 352.879zM408.381 521.142c-55.572-18.285-129.773-84.771-159.643-107.557 14.762-21.246 41.871-54.415 58.919-74.58 7.738 15.671 14.217 29.417 20.118 41.939 22.183 47.071 44.035 84.615 80.606 140.198z" />
<glyph unicode="&#xe91c;" glyph-name="Logo" horiz-adv-x="940" d="M879.010 154.933c2.351 25.147 3.551 50.623 3.551 76.378 0 317.386-182.406 592.622-449.158 728.689-8.65-2.501-17.072-6.037-25.071-10.607l-196.226-112.089c272.934-69.301 474.655-314.339 474.655-605.993 0-72.37-12.42-141.87-35.267-206.528l222.292 126.978c1.776 1.016 3.519 2.073 5.224 3.172zM657.962 872.058c144.539-133.32 243.917-313.943 272.948-516.946v295.773c0 40.383-21.776 77.699-57.125 97.89l-215.824 123.282zM569.68-21.951c38.375 76.275 59.958 162.275 59.958 253.262 0 286.48-213.96 523.519-492.402 563.227l-80.114-45.762c-35.348-20.192-57.123-57.507-57.123-97.89v-5.96c17.827 2.276 36.003 3.448 54.455 3.448 232.808 0 421.538-186.725 421.538-417.063 0-100.312-35.794-192.353-95.437-264.303l27.775-15.866c35.347-20.19 78.898-20.19 114.247 0l47.102 26.906zM0 587.86c17.765 2.633 35.949 3.998 54.455 3.998 201.261 0 364.415-161.422 364.415-360.546 0-90.062-33.376-172.41-88.559-235.602l-80.204 45.815c48.464 48.899 78.349 115.89 78.349 189.787 0 149.719-122.674 271.090-274 271.090-18.645 0-36.856-1.843-54.455-5.354v90.812zM198.573 70.961c44.64 39.303 72.76 96.578 72.76 160.35 0 118.506-97.1 214.574-216.877 214.574-18.807 0-37.055-2.37-54.455-6.821v-144.073c14.69 12.309 33.697 19.732 54.455 19.732 46.562 0 84.308-37.345 84.308-83.412 0-43.173-33.15-78.683-75.64-82.977l135.451-77.373z" />
<glyph unicode="&#xe91d;" glyph-name="GPrm-ic" horiz-adv-x="1138" d="M839.339 794.188c14.933-6.2 24.661-20.776 24.661-36.942v-113.159l219.739-91.307c11.577-4.809 19.115-16.115 19.115-28.654v-104.586c0-211.31-127.619-401.388-323.1-481.242-7.509-3.066-15.923-3.066-23.433 0-55.814 22.801-106.098 54.591-149.453 93.286-47.952-37.507-101.518-68.847-159.752-92.621-9.69-3.954-20.544-3.954-30.232 0-252.226 102.952-416.884 348.006-416.884 620.432v197.85c0 16.166 9.732 30.742 24.662 36.942l392 162.754c9.818 4.078 20.856 4.076 30.676 0l392.001-162.754zM432 19.45c215.999 95.164 351.997 308.355 351.997 539.946v171.146l-351.997 146.148-352-146.148v-171.146c0-237.866 141.772-447.325 352-539.946zM768.040 20.315c167.407 73.813 255.386 215.057 255.386 394.692v75.761l-159.431 66.366c-0.609-182.487-75.093-352.534-200.232-475.601 31.42-23.996 66.418-44.527 104.277-61.218zM387.788 424.568l171.928 171.926c15.618 15.62 40.945 15.622 56.567 0s15.622-40.948 0-56.568l-200.211-200.208c-15.625-15.627-40.95-15.622-56.568 0l-111.788 111.787c-15.622 15.622-15.622 40.948 0 56.568s40.948 15.622 56.568 0l83.504-83.504z" />
<glyph unicode="&#xe91e;" glyph-name="Prm-ic" horiz-adv-x="910" d="M839.339 794.188l-392 162.754c-9.82 4.076-20.858 4.078-30.676 0l-392-162.754c-14.93-6.2-24.662-20.776-24.662-36.942v-197.85c0-272.426 164.658-517.48 416.884-620.432 9.688-3.954 20.542-3.954 30.232 0 252.224 102.952 416.883 348.006 416.883 620.432v197.85c0 16.166-9.728 30.742-24.661 36.942zM784.003 559.396c0-231.591-136.004-444.782-352.003-539.946-210.228 92.621-352 302.080-352 539.946v171.146l352 146.148 352.003-146.148v-171.146zM387.788 424.568l171.928 171.926c15.618 15.62 40.945 15.622 56.567 0s15.622-40.948 0-56.568l-200.211-200.208c-15.624-15.627-40.95-15.622-56.568 0l-111.788 111.786c-15.622 15.622-15.622 40.948 0 56.568s40.947 15.622 56.568 0l83.504-83.504z" />
<glyph unicode="&#xe91f;" glyph-name="RG-ic" d="M651.628 484.916c0 80.192-65.405 145.434-145.8 145.434s-145.801-65.241-145.801-145.434c0-80.192 65.406-145.432 145.801-145.432s145.8 65.24 145.8 145.432zM505.828 412.2c-40.198 0-72.901 32.621-72.901 72.717s32.703 72.717 72.901 72.717c40.197 0 72.903-32.621 72.903-72.717s-32.705-72.717-72.903-72.717zM505.828 121.333c180.889 0 328.055 146.79 328.055 327.225 0 180.432-147.166 327.226-328.055 327.226s-328.053-146.794-328.053-327.226c0-180.435 147.164-327.225 328.053-327.225zM397.148 218.328c27.304 30.47 66.544 48.435 108.681 48.435s81.379-17.966 108.68-48.435c-32.99-15.559-69.832-24.28-108.68-24.28s-75.688 8.721-108.681 24.28zM505.828 703.067c140.691 0 255.152-114.173 255.152-254.509 0-75.333-32.996-143.116-85.311-189.753-41.068 50.551-103.020 80.68-169.841 80.68s-128.774-30.128-169.842-80.68c-52.318 46.638-85.311 114.421-85.311 189.753 0 140.336 114.462 254.509 255.152 254.509zM149.052 762.312c20.745 5.292 36.927 21.43 42.231 42.123 8.947 34.909 32.059 65.285 63.409 83.341 30.655 17.653 65.966 22.222 99.434 12.866 20.617-5.766 42.72 0.141 57.684 15.416 27.36 27.926 61.627 43.943 94.017 43.943s66.656-16.017 94.020-43.943c14.967-15.273 37.074-21.182 57.685-15.416 33.462 9.356 68.779 4.787 99.436-12.866 31.346-18.055 54.46-48.432 63.408-83.341 5.302-20.693 21.481-36.831 42.223-42.123 34.577-8.816 63.448-30.65 81.289-61.477 17.846-30.827 22.369-66.682 12.732-100.956-5.78-20.566 0.142-42.614 15.457-57.541 25.52-24.879 39.583-58.185 39.583-93.78v-1.116c0-35.597-14.063-68.903-39.578-93.781-15.314-14.928-21.237-36.972-15.457-57.537 9.631-34.276 5.109-70.133-12.732-100.961-17.846-30.822-46.717-52.656-81.289-61.474-20.747-5.291-36.927-21.43-42.234-42.121-8.943-34.913-32.057-65.286-63.408-83.342-30.652-17.653-65.963-22.221-99.43-12.868-20.617 5.769-42.724-0.142-57.685-15.417-27.358-27.921-61.628-43.941-94.017-43.941s-66.658 16.020-94.023 43.941c-14.964 15.275-37.070 21.185-57.684 15.417-33.464-9.353-68.779-4.784-99.434 12.868-31.35 18.057-54.461 48.43-63.409 83.342-5.303 20.69-21.481 36.83-42.226 42.121-34.575 8.818-63.443 30.652-81.287 61.474-17.844 30.828-22.366 66.685-12.733 100.955 5.781 20.571-0.141 42.615-15.455 57.543-25.523 24.878-39.58 58.186-39.58 93.781v1.116c0 35.597 14.058 68.902 39.578 93.78 15.312 14.927 21.234 36.974 15.455 57.539-9.633 34.276-5.11 70.131 12.733 100.958s46.712 52.661 81.286 61.477zM291.141 824.8c-14.461-8.329-25.115-22.317-29.231-38.378-11.905-46.451-48.228-82.684-94.8-94.561-15.399-3.927-28.258-13.654-36.208-27.385s-9.963-29.703-5.671-44.971c12.974-46.166-0.323-95.662-34.698-129.174-11.37-11.085-17.632-25.921-17.632-41.776l0.005-1.11c0-15.855 6.26-30.692 17.63-41.774 34.375-33.51 47.672-83.009 34.698-129.174-4.292-15.269-2.277-31.238 5.672-44.971 7.946-13.733 20.805-23.461 36.207-27.386 46.572-11.878 82.896-48.111 94.8-94.561 4.116-16.060 14.769-30.049 29.231-38.377 13.518-7.782 28.898-9.853 43.308-5.82 46.287 12.937 95.908-0.324 129.5-34.617 13.324-13.596 29.372-22.050 41.879-22.050s28.555 8.454 41.879 22.050c33.593 34.293 83.217 47.553 129.502 34.611 14.416-4.028 29.793-1.957 43.304 5.825 14.461 8.329 25.116 22.318 29.235 38.377 11.901 46.45 48.225 82.682 94.8 94.561 15.4 3.925 28.257 13.653 36.204 27.386 7.953 13.727 9.967 29.702 5.672 44.971-12.971 46.165 0.324 95.659 34.702 129.171 11.366 11.085 17.63 25.921 17.63 41.776l-0.006 1.11c0 15.855-6.258 30.692-17.63 41.774-34.372 33.51-47.673 83.007-34.697 129.174 4.289 15.268 2.276 31.239-5.672 44.971s-20.804 23.459-36.21 27.385c-46.569 11.877-82.893 48.112-94.8 94.564-4.113 16.061-14.768 30.046-29.23 38.375-13.517 7.786-28.9 9.853-43.31 5.823-46.285-12.941-95.903 0.322-129.498 34.613-13.324 13.6-29.372 22.050-41.879 22.050s-28.555-8.45-41.879-22.047c-33.595-34.291-83.216-47.555-129.501-34.613-14.415 4.028-29.792 1.961-43.307-5.822z" />
<glyph unicode="&#xe920;" glyph-name="Us-ic" horiz-adv-x="967" d="M624.151 535.772c116.964 0 212.116 95.154 212.116 212.114s-95.152 212.114-212.116 212.114c-116.958 0-212.112-95.154-212.112-212.114s95.154-212.114 212.112-212.114zM624.151 886.857c76.629 0 138.974-62.342 138.974-138.972s-62.345-138.972-138.974-138.972c-76.628 0-138.97 62.342-138.97 138.972s62.342 138.972 138.97 138.972zM875.782 495.904c13.238-15.173 43.378-55.145 58.010-93.645 24.553-63.929 19.502-176.979 19.502-315.1l-0.336-73.142c-3.749-43.639-40.448-78.017-85.049-78.017h-487.512c-44.6 0-81.298 34.378-85.048 78.017h-223.639c-39.541 0-71.709 32.046-71.709 71.435v341.848c0 90.732 74.264 164.547 165.547 164.547h56.564c66.655 0 124.194-39.38 150.415-95.944 53.982 58.928 131.521 95.944 217.548 95.944h68.159c86.027 0 163.567-37.015 217.549-95.944zM165.547 518.705c-50.951 0-92.404-41.004-92.404-91.405v-340.141h221.867c0 18.893-0.096 36.415-0.199 52.764l-0.044 6.929v0.011c-0.624 97.906-0.973 201.444 19.747 255.395v25.041c0 50.401-41.453 91.405-92.403 91.405h-56.564zM867.908 9.142c6.753 0 12.242 5.49 12.242 12.242v275.405c0 122.363-99.55 221.916-221.918 221.916h-68.164c-122.364 0-221.916-99.553-221.916-221.921v-275.399c0-6.747 5.49-12.242 12.241-12.242h487.514zM195.048 535.772c73.94 0 134.095 60.155 134.095 134.095s-60.155 134.095-134.095 134.095c-73.94 0-134.095-60.155-134.095-134.095s60.155-134.095 134.095-134.095zM195.048 730.819c33.609 0 60.952-27.343 60.952-60.952s-27.343-60.952-60.952-60.952c-33.609 0-60.952 27.343-60.952 60.952s27.344 60.952 60.952 60.952z" />
<glyph unicode="&#xe921;" glyph-name="PL-ic" horiz-adv-x="1178" d="M566.958 574.645c106.414 0 192.676 86.265 192.676 192.677s-86.262 192.677-192.676 192.677c-106.413 0-192.677-86.264-192.677-192.677s86.264-192.677 192.677-192.677zM956.744 574.645c67.272 0 121.805 54.535 121.805 121.808s-54.533 121.807-121.805 121.807c-67.272 0-121.81-54.535-121.81-121.807s54.538-121.808 121.81-121.808zM177.175 574.645c67.272 0 121.807 54.535 121.807 121.808s-54.535 121.807-121.807 121.807c-67.272 0-121.807-54.535-121.807-121.807s54.535-121.808 121.807-121.808zM297.188 474.938c-47.948 39.284-91.372 34.084-146.811 34.084-82.918 0-150.377-67.059-150.377-149.47v-286.157c0-35.789 29.212-64.891 65.134-64.891 155.085 0 136.402-2.806 136.402 6.687 0 171.387-20.3 341.366 95.652 459.747zM619.689 508.138c-96.835 8.077-181.003-0.093-253.602-60.018-121.49-97.314-98.11-272.633-98.11-432.925 0-42.409 34.505-77.558 77.558-77.558 467.481 0 486.087-15.084 513.806 46.305 9.093 20.762 6.6 58.46 6.6 257.060 0 157.742-136.586 267.135-246.252 267.135zM983.542 509.024c-55.747 0-98.929 5.147-146.811-34.084 115.082-117.503 95.652-278.906 95.652-459.744 0-9.554-15.514-6.692 134.077-6.692 37.202 0 67.456 30.141 67.456 67.195v283.858c0 82.406-67.456 149.467-150.374 149.467z" />
<glyph unicode="&#xe922;" glyph-name="Rectangle-7" d="M341.333 960h341.333c188.513 0 341.333-152.82 341.333-341.333v-341.333c0-188.513-152.82-341.333-341.333-341.333h-341.333c-188.513 0-341.333 152.82-341.333 341.333v341.333c0 188.513 152.82 341.333 341.333 341.333z" />
<glyph unicode="&#xe923;" glyph-name="Vector" d="M973.594 27.296l-243.712 253.478c62.662 74.489 96.998 168.214 96.998 265.786 0 227.967-185.472 413.439-413.441 413.439-227.967 0-413.439-185.473-413.439-413.439 0-227.969 185.473-413.441 413.439-413.441 85.582 0 167.138 25.811 236.865 74.816l245.568-255.398c10.259-10.662 24.064-16.538 38.861-16.538 14.003 0 27.29 5.338 37.37 15.046 21.427 20.614 22.112 54.81 1.491 76.25zM413.439 852.146c168.504 0 305.588-137.082 305.588-305.585s-137.084-305.588-305.588-305.588c-168.504 0-305.585 137.084-305.585 305.588s137.082 305.585 305.585 305.585z" />
<glyph unicode="&#xe924;" horiz-adv-x="1003" d="M490.667 853.333h21.333c153.167 0 277.333-124.166 277.333-277.333v-42.667c0-153.167-124.166-277.333-277.333-277.333h-21.333c-153.167 0-277.333 124.166-277.333 277.333v42.667c0 153.167 124.166 277.333 277.333 277.333z" />
<glyph unicode="&#xe925;" horiz-adv-x="1003" d="M416.467 655.938l94.138-91.164-26.897-26.046-94.138 91.164 26.897 26.046z" />
<glyph unicode="&#xe926;" horiz-adv-x="1003" d="M416.467 629.892c-7.428-7.194-19.469-7.194-26.897 0-7.426 7.191-7.426 18.854 0 26.046 7.428 7.194 19.469 7.194 26.897 0 7.426-7.191 7.426-18.854 0-26.046z" />
<glyph unicode="&#xe927;" horiz-adv-x="1003" d="M510.605 538.729c-7.428-7.194-19.471-7.194-26.897 0-7.428 7.191-7.428 18.854 0 26.046 7.426 7.194 19.469 7.194 26.897 0 7.426-7.191 7.426-18.854 0-26.046z" />
<glyph unicode="&#xe928;" horiz-adv-x="1003" d="M586.199 655.938l-94.138-91.164 26.897-26.046 94.138 91.164-26.897 26.046z" />
<glyph unicode="&#xe929;" horiz-adv-x="1003" d="M586.199 629.892c7.428-7.194 19.469-7.194 26.897 0 7.426 7.191 7.426 18.854 0 26.046-7.428 7.194-19.469 7.194-26.897 0-7.426-7.191-7.426-18.854 0-26.046z" />
<glyph unicode="&#xe92a;" horiz-adv-x="1003" d="M492.062 538.729c7.428-7.194 19.471-7.194 26.897 0 7.428 7.191 7.428 18.854 0 26.046-7.426 7.194-19.469 7.194-26.897 0-7.426-7.191-7.426-18.854 0-26.046z" />
<glyph unicode="&#xe92b;" horiz-adv-x="1003" d="M416.467 432.062l94.138 91.164-26.897 26.046-94.138-91.164 26.897-26.046z" />
<glyph unicode="&#xe92c;" horiz-adv-x="1003" d="M416.467 458.108c-7.428 7.194-19.469 7.194-26.897 0-7.426-7.191-7.426-18.854 0-26.046 7.428-7.194 19.469-7.194 26.897 0 7.426 7.191 7.426 18.854 0 26.046z" />
<glyph unicode="&#xe92d;" horiz-adv-x="1003" d="M510.605 549.271c-7.428 7.194-19.471 7.194-26.897 0-7.428-7.191-7.428-18.854 0-26.046 7.426-7.194 19.469-7.194 26.897 0 7.426 7.191 7.426 18.854 0 26.046z" />
<glyph unicode="&#xe92e;" horiz-adv-x="1003" d="M586.199 432.062l-94.138 91.164 26.897 26.046 94.138-91.164-26.897-26.046z" />
<glyph unicode="&#xe92f;" horiz-adv-x="1003" d="M586.199 458.108c7.428 7.194 19.469 7.194 26.897 0 7.426-7.191 7.426-18.854 0-26.046-7.428-7.194-19.469-7.194-26.897 0-7.426 7.191-7.426 18.854 0 26.046z" />
<glyph unicode="&#xe930;" horiz-adv-x="1003" d="M492.062 549.271c7.428 7.194 19.471 7.194 26.897 0 7.428-7.191 7.428-18.854 0-26.046-7.426-7.194-19.469-7.194-26.897 0-7.426 7.191-7.426 18.854 0 26.046z" />
<glyph unicode="&#xe931;" d="M490.667 853.333h42.667c153.167 0 277.333-124.166 277.333-277.333v-42.667c0-153.167-124.166-277.333-277.333-277.333h-42.667c-153.167 0-277.333 124.166-277.333 277.333v42.667c0 153.167 124.166 277.333 277.333 277.333z" />
<glyph unicode="&#xe932;" d="M611.388 496.9c-8.597 0-15.546-7.066-15.546-15.808v-49.662c0-8.727-6.963-15.81-15.543-15.81h-170.997c-8.58 0-15.546 7.083-15.546 15.81v205.534c0 8.727 6.965 15.81 15.546 15.81h90.317c8.595 0 15.546 7.068 15.546 15.81s-6.95 15.81-15.546 15.81h-90.317c-25.711 0.002-46.635-21.28-46.635-47.43v-205.534c0-26.15 20.924-47.43 46.635-47.43h170.995c25.711 0 46.635 21.265 46.635 47.43v49.66c0 8.745-6.948 15.81-15.543 15.81z" />
<glyph unicode="&#xe933;" d="M665.282 686.404c-11.285 11.477-26.022 17.265-40.868 17.581-15.622 0.348-31.339-5.406-43.153-17.438l-105.239-107.036c-15.358-15.684-23.817-36.491-23.817-58.594v-35.415c0-8.742 6.95-15.81 15.546-15.81h34.82c21.732 0 42.189 8.602 57.626 24.239l105.101 106.893c23.162 23.573 23.162 61.993-0.015 85.581zM538.231 516.301c-9.527-9.66-22.212-14.989-35.659-14.989h-19.277v19.605c0 13.677 5.239 26.577 14.72 36.254l69.378 70.56 40.201-40.885-69.363-70.545zM643.3 623.164l-13.726-13.963-40.198 40.885 13.726 13.961c11.098 11.29 29.131 11.258 40.198 0 11.070-11.27 11.070-29.611 0-40.883z" />
<glyph unicode="&#xe934;" d="M538.231 516.301c-9.527-9.66-22.212-14.989-35.659-14.989h-19.277v19.605c0 13.677 5.239 26.577 14.72 36.254l69.378 70.56 40.201-40.885-69.363-70.545z" />
<glyph unicode="&#xe935;" d="M490.667 853.333h42.667c153.167 0 277.333-124.166 277.333-277.333v-42.667c0-153.167-124.166-277.333-277.333-277.333h-42.667c-153.167 0-277.333 124.166-277.333 277.333v42.667c0 153.167 124.166 277.333 277.333 277.333z" />
<glyph unicode="&#xe936;" d="M638.95 641.513l-122.5 50.861c-3.070 1.274-6.519 1.274-9.587 0l-122.5-50.861c-4.666-1.937-7.706-6.494-7.706-11.546v-61.828c0-85.133 51.454-161.711 130.276-193.884 3.027-1.235 6.419-1.235 9.446 0 78.82 32.171 130.276 108.751 130.276 193.884v61.828c0 5.052-3.040 9.609-7.706 11.546zM551.567 579.733l-53.726-53.728-26.097 26.095c-4.881 4.883-12.794 4.881-17.677 0-4.881-4.881-4.881-12.796 0-17.677l34.933-34.933c4.881-4.881 12.796-4.883 17.679 0l62.564 62.564c4.883 4.881 4.883 12.796 0.002 17.679-4.883 4.881-12.798 4.881-17.679 0z" />
<glyph unicode="&#xe937;" horiz-adv-x="979" d="M489.739 594.922c-83.543 0-151.374-67.831-151.374-151.374s67.831-151.374 151.374-151.374c83.543 0 151.374 67.831 151.374 151.374s-67.831 151.374-151.374 151.374z" />
<glyph unicode="&#xe938;" horiz-adv-x="979" d="M489.739 960c270.475 0 489.739-219.264 489.739-489.739v-44.522c0-270.475-219.264-489.739-489.739-489.739s-489.739 219.264-489.739 489.739v44.522c0 270.475 219.264 489.739 489.739 489.739z" />
<glyph unicode="&#xe939;" horiz-adv-x="609" d="M298.127 895.19h12.962c93.063 0 168.506-75.443 168.506-168.506v-427.747c0-93.063-75.443-168.506-168.506-168.506h-12.962c-93.063 0-168.506 75.443-168.506 168.506v427.747c0 93.063 75.443 168.506 168.506 168.506z" />
<glyph unicode="&#xe93a;" horiz-adv-x="609" d="M253.043 580.823l57.198-55.391-16.343-15.825-57.198 55.391 16.343 15.825z" />
<glyph unicode="&#xe93b;" horiz-adv-x="609" d="M253.043 564.998c-4.513-4.371-11.829-4.371-16.343 0-4.512 4.369-4.512 11.456 0 15.825 4.513 4.371 11.829 4.371 16.343 0 4.512-4.369 4.512-11.456 0-15.825z" />
<glyph unicode="&#xe93c;" horiz-adv-x="609" d="M310.241 509.607c-4.513-4.371-11.83-4.371-16.343 0-4.513 4.369-4.513 11.456 0 15.825 4.512 4.371 11.829 4.371 16.343 0 4.512-4.369 4.512-11.456 0-15.825z" />
<glyph unicode="&#xe93d;" horiz-adv-x="609" d="M356.172 580.823l-57.198-55.391 16.343-15.825 57.198 55.391-16.343 15.825z" />
<glyph unicode="&#xe93e;" horiz-adv-x="609" d="M356.172 564.998c4.513-4.371 11.829-4.371 16.343 0 4.512 4.369 4.512 11.456 0 15.825-4.513 4.371-11.829 4.371-16.343 0-4.512-4.369-4.512-11.456 0-15.825z" />
<glyph unicode="&#xe93f;" horiz-adv-x="609" d="M298.974 509.607c4.513-4.371 11.83-4.371 16.343 0 4.513 4.369 4.513 11.456 0 15.825-4.512 4.371-11.829 4.371-16.343 0-4.512-4.369-4.512-11.456 0-15.825z" />
<glyph unicode="&#xe940;" horiz-adv-x="609" d="M253.043 444.797l57.198 55.391-16.343 15.825-57.198-55.391 16.343-15.825z" />
<glyph unicode="&#xe941;" horiz-adv-x="609" d="M253.043 460.622c-4.513 4.371-11.829 4.371-16.343 0-4.512-4.369-4.512-11.456 0-15.825 4.513-4.371 11.829-4.371 16.343 0 4.512 4.369 4.512 11.456 0 15.825z" />
<glyph unicode="&#xe942;" horiz-adv-x="609" d="M310.241 516.013c-4.513 4.371-11.83 4.371-16.343 0-4.513-4.369-4.513-11.456 0-15.825 4.512-4.371 11.829-4.371 16.343 0 4.512 4.369 4.512 11.456 0 15.825z" />
<glyph unicode="&#xe943;" horiz-adv-x="609" d="M356.172 444.797l-57.198 55.391 16.343 15.825 57.198-55.391-16.343-15.825z" />
<glyph unicode="&#xe944;" horiz-adv-x="609" d="M356.172 460.622c4.513 4.371 11.829 4.371 16.343 0 4.512-4.369 4.512-11.456 0-15.825-4.513-4.371-11.829-4.371-16.343 0-4.512 4.369-4.512 11.456 0 15.825z" />
<glyph unicode="&#xe945;" horiz-adv-x="609" d="M298.974 516.013c4.513 4.371 11.83 4.371 16.343 0 4.513-4.369 4.513-11.456 0-15.825-4.512-4.371-11.829-4.371-16.343 0-4.512 4.369-4.512 11.456 0 15.825z" />
</font>
</defs>
</svg>
