<svg width="25" height="25" viewBox="0 0 25 25" fill="none" xmlns="http://www.w3.org/2000/svg">
<path d="M24.0234 17.1875C24.5628 17.1875 25 16.7503 25 16.2109V5.85938C25 3.70547 23.2477 1.95312 21.0938 1.95312H19.8242V0.976562C19.8242 0.437207 19.387 0 18.8477 0C18.3083 0 17.8711 0.437207 17.8711 0.976562V1.95312H13.4277V0.976562C13.4277 0.437207 12.9905 0 12.4512 0C11.9118 0 11.4746 0.437207 11.4746 0.976562V1.95312H7.08008V0.976562C7.08008 0.437207 6.64287 0 6.10352 0C5.56416 0 5.12695 0.437207 5.12695 0.976562V1.95312H3.90625C1.75234 1.95312 0 3.70547 0 5.85938V21.0938C0 23.2477 1.75234 25 3.90625 25H21.0938C23.2477 25 25 23.2477 25 21.0938C25 20.5544 24.5628 20.1172 24.0234 20.1172C23.4841 20.1172 23.0469 20.5544 23.0469 21.0938C23.0469 22.1707 22.1707 23.0469 21.0938 23.0469H3.90625C2.8293 23.0469 1.95312 22.1707 1.95312 21.0938V5.85938C1.95312 4.78242 2.8293 3.90625 3.90625 3.90625H5.12695V4.88281C5.12695 5.42217 5.56416 5.85938 6.10352 5.85938C6.64287 5.85938 7.08008 5.42217 7.08008 4.88281V3.90625H11.4746V4.88281C11.4746 5.42217 11.9118 5.85938 12.4512 5.85938C12.9905 5.85938 13.4277 5.42217 13.4277 4.88281V3.90625H17.8711V4.88281C17.8711 5.42217 18.3083 5.85938 18.8477 5.85938C19.387 5.85938 19.8242 5.42217 19.8242 4.88281V3.90625H21.0938C22.1707 3.90625 23.0469 4.78242 23.0469 5.85938V16.2109C23.0469 16.7503 23.4841 17.1875 24.0234 17.1875Z" fill="#757575"/>
<path d="M6.10352 11.2305C6.64286 11.2305 7.08008 10.7932 7.08008 10.2539C7.08008 9.71457 6.64286 9.27734 6.10352 9.27734C5.56418 9.27734 5.12695 9.71457 5.12695 10.2539C5.12695 10.7932 5.56418 11.2305 6.10352 11.2305Z" fill="#757575"/>
<path d="M14.5996 11.2305C15.139 11.2305 15.5762 10.7932 15.5762 10.2539C15.5762 9.71457 15.139 9.27734 14.5996 9.27734C14.0603 9.27734 13.623 9.71457 13.623 10.2539C13.623 10.7932 14.0603 11.2305 14.5996 11.2305Z" fill="#757575"/>
<path d="M18.8477 11.2305C19.387 11.2305 19.8242 10.7932 19.8242 10.2539C19.8242 9.71457 19.387 9.27734 18.8477 9.27734C18.3083 9.27734 17.8711 9.71457 17.8711 10.2539C17.8711 10.7932 18.3083 11.2305 18.8477 11.2305Z" fill="#757575"/>
<path d="M6.10352 15.4785C6.64286 15.4785 7.08008 15.0413 7.08008 14.502C7.08008 13.9626 6.64286 13.5254 6.10352 13.5254C5.56418 13.5254 5.12695 13.9626 5.12695 14.502C5.12695 15.0413 5.56418 15.4785 6.10352 15.4785Z" fill="#757575"/>
<path d="M6.10352 19.7266C6.64286 19.7266 7.08008 19.2893 7.08008 18.75C7.08008 18.2107 6.64286 17.7734 6.10352 17.7734C5.56418 17.7734 5.12695 18.2107 5.12695 18.75C5.12695 19.2893 5.56418 19.7266 6.10352 19.7266Z" fill="#757575"/>
<path d="M10.3516 11.2305C10.8909 11.2305 11.3281 10.7932 11.3281 10.2539C11.3281 9.71457 10.8909 9.27734 10.3516 9.27734C9.81222 9.27734 9.375 9.71457 9.375 10.2539C9.375 10.7932 9.81222 11.2305 10.3516 11.2305Z" fill="#757575"/>
<path d="M10.3516 15.4785C10.8909 15.4785 11.3281 15.0413 11.3281 14.502C11.3281 13.9626 10.8909 13.5254 10.3516 13.5254C9.81222 13.5254 9.375 13.9626 9.375 14.502C9.375 15.0413 9.81222 15.4785 10.3516 15.4785Z" fill="#757575"/>
<path d="M10.3516 19.7266C10.8909 19.7266 11.3281 19.2893 11.3281 18.75C11.3281 18.2107 10.8909 17.7734 10.3516 17.7734C9.81222 17.7734 9.375 18.2107 9.375 18.75C9.375 19.2893 9.81222 19.7266 10.3516 19.7266Z" fill="#757575"/>
<path d="M14.5996 15.4785C15.139 15.4785 15.5762 15.0413 15.5762 14.502C15.5762 13.9626 15.139 13.5254 14.5996 13.5254C14.0603 13.5254 13.623 13.9626 13.623 14.502C13.623 15.0413 14.0603 15.4785 14.5996 15.4785Z" fill="#757575"/>
<path d="M18.8477 15.4785C19.387 15.4785 19.8242 15.0413 19.8242 14.502C19.8242 13.9626 19.387 13.5254 18.8477 13.5254C18.3083 13.5254 17.8711 13.9626 17.8711 14.502C17.8711 15.0413 18.3083 15.4785 18.8477 15.4785Z" fill="#757575"/>
<path d="M14.5996 19.7266C15.139 19.7266 15.5762 19.2893 15.5762 18.75C15.5762 18.2107 15.139 17.7734 14.5996 17.7734C14.0603 17.7734 13.623 18.2107 13.623 18.75C13.623 19.2893 14.0603 19.7266 14.5996 19.7266Z" fill="#757575"/>
</svg>
