<svg width="90" height="25" viewBox="0 0 90 25" fill="none" xmlns="http://www.w3.org/2000/svg">
<path d="M7.34619 9.8291C7.34619 9.35872 7.18018 8.99902 6.84814 8.75C6.51611 8.49544 5.91846 8.22982 5.05518 7.95312C4.19189 7.6709 3.50846 7.39421 3.00488 7.12305C1.63249 6.38151 0.946289 5.38265 0.946289 4.12646C0.946289 3.47347 1.12891 2.89242 1.49414 2.3833C1.86491 1.86865 2.39339 1.46745 3.07959 1.17969C3.77132 0.891927 4.54606 0.748047 5.40381 0.748047C6.26709 0.748047 7.0363 0.905762 7.71143 1.22119C8.38656 1.53109 8.9095 1.97103 9.28027 2.54102C9.65658 3.111 9.84473 3.75846 9.84473 4.4834H7.35449C7.35449 3.93001 7.18018 3.50114 6.83154 3.19678C6.48291 2.88688 5.99316 2.73193 5.3623 2.73193C4.75358 2.73193 4.28044 2.86198 3.94287 3.12207C3.60531 3.37663 3.43652 3.71419 3.43652 4.13477C3.43652 4.52767 3.63298 4.85693 4.02588 5.12256C4.42432 5.38818 5.00814 5.63721 5.77734 5.86963C7.19401 6.29574 8.22607 6.82422 8.87354 7.45508C9.521 8.08594 9.84473 8.87175 9.84473 9.8125C9.84473 10.8584 9.44906 11.6802 8.65771 12.2778C7.86637 12.87 6.80111 13.166 5.46191 13.166C4.53223 13.166 3.68555 12.9972 2.92188 12.6597C2.1582 12.3166 1.57438 11.849 1.17041 11.2568C0.771973 10.6647 0.572754 9.97852 0.572754 9.19824H3.07129C3.07129 10.5319 3.86816 11.1987 5.46191 11.1987C6.05404 11.1987 6.51611 11.0798 6.84814 10.8418C7.18018 10.5983 7.34619 10.2607 7.34619 9.8291Z" fill="url(#paint0_linear)"/>
<path d="M14.962 0.914062L18.0665 9.67969L21.1544 0.914062H24.4249V13H21.9263V9.69629L22.1754 3.99365L18.9132 13H17.2032L13.9493 4.00195L14.1983 9.69629V13H11.7081V0.914062H14.962Z" fill="url(#paint1_linear)"/>
<path d="M33.7423 10.5098H29.3761L28.5461 13H25.8981L30.3971 0.914062H32.7047L37.2287 13H34.5807L33.7423 10.5098ZM30.0485 8.49268H33.07L31.5509 3.96875L30.0485 8.49268Z" fill="url(#paint2_linear)"/>
<path d="M43.0017 8.57568H41.0178V13H38.5276V0.914062H43.0183C44.446 0.914062 45.5473 1.23226 46.322 1.86865C47.0967 2.50505 47.4841 3.4043 47.4841 4.56641C47.4841 5.39095 47.3043 6.07992 46.9446 6.6333C46.5904 7.18115 46.0508 7.61833 45.3259 7.94482L47.9407 12.8838V13H45.2678L43.0017 8.57568ZM41.0178 6.55859H43.0266C43.6519 6.55859 44.1361 6.40088 44.4792 6.08545C44.8223 5.76449 44.9939 5.32454 44.9939 4.76562C44.9939 4.19564 44.8306 3.7474 44.5041 3.4209C44.1832 3.0944 43.6879 2.93115 43.0183 2.93115H41.0178V6.55859Z" fill="url(#paint3_linear)"/>
<path d="M58.2376 2.93115H54.5355V13H52.0452V2.93115H48.3929V0.914062H58.2376V2.93115Z" fill="url(#paint4_linear)"/>
<path d="M73.5771 13H71.0869V7.82031H66.2309V13H63.7407V0.914062H66.2309V5.81152H71.0869V0.914062H73.5771V13Z" fill="url(#paint5_linear)"/>
<path d="M78.5782 13H76.088V0.914062H78.5782V13Z" fill="url(#paint6_linear)"/>
<path d="M87.3312 9.8291C87.3312 9.35872 87.1652 8.99902 86.8331 8.75C86.5011 8.49544 85.9035 8.22982 85.0402 7.95312C84.1769 7.6709 83.4935 7.39421 82.9899 7.12305C81.6175 6.38151 80.9313 5.38265 80.9313 4.12646C80.9313 3.47347 81.1139 2.89242 81.4791 2.3833C81.8499 1.86865 82.3784 1.46745 83.0646 1.17969C83.7563 0.891927 84.5311 0.748047 85.3888 0.748047C86.2521 0.748047 87.0213 0.905762 87.6964 1.22119C88.3716 1.53109 88.8945 1.97103 89.2653 2.54102C89.6416 3.111 89.8297 3.75846 89.8297 4.4834H87.3395C87.3395 3.93001 87.1652 3.50114 86.8165 3.19678C86.4679 2.88688 85.9782 2.73193 85.3473 2.73193C84.7386 2.73193 84.2654 2.86198 83.9279 3.12207C83.5903 3.37663 83.4215 3.71419 83.4215 4.13477C83.4215 4.52767 83.618 4.85693 84.0109 5.12256C84.4093 5.38818 84.9931 5.63721 85.7623 5.86963C87.179 6.29574 88.2111 6.82422 88.8585 7.45508C89.506 8.08594 89.8297 8.87175 89.8297 9.8125C89.8297 10.8584 89.4341 11.6802 88.6427 12.2778C87.8514 12.87 86.7861 13.166 85.4469 13.166C84.5172 13.166 83.6705 12.9972 82.9069 12.6597C82.1432 12.3166 81.5594 11.849 81.1554 11.2568C80.757 10.6647 80.5578 9.97852 80.5578 9.19824H83.0563C83.0563 10.5319 83.8532 11.1987 85.4469 11.1987C86.039 11.1987 86.5011 11.0798 86.8331 10.8418C87.1652 10.5983 87.3312 10.2607 87.3312 9.8291Z" fill="url(#paint7_linear)"/>
<path d="M4.49463 23H3.46924V20.8672H1.46973V23H0.444336V18.0234H1.46973V20.04H3.46924V18.0234H4.49463V23Z" fill="url(#paint8_linear)"/>
<path d="M5.1748 21.1167C5.1748 20.7498 5.24544 20.4229 5.38672 20.1357C5.52799 19.8486 5.73079 19.6265 5.99512 19.4692C6.26172 19.312 6.57048 19.2334 6.92139 19.2334C7.42041 19.2334 7.82715 19.3861 8.1416 19.6914C8.45833 19.9967 8.63493 20.4115 8.67139 20.9355L8.67822 21.1885C8.67822 21.7559 8.51986 22.2116 8.20312 22.5557C7.88639 22.8975 7.46143 23.0684 6.92822 23.0684C6.39502 23.0684 5.96891 22.8975 5.6499 22.5557C5.33317 22.2139 5.1748 21.749 5.1748 21.1611V21.1167ZM6.1626 21.1885C6.1626 21.5394 6.22868 21.8083 6.36084 21.9951C6.493 22.1797 6.68213 22.272 6.92822 22.272C7.16748 22.272 7.35433 22.1808 7.48877 21.9985C7.62321 21.814 7.69043 21.52 7.69043 21.1167C7.69043 20.7726 7.62321 20.506 7.48877 20.3169C7.35433 20.1278 7.1652 20.0332 6.92139 20.0332C6.67985 20.0332 6.493 20.1278 6.36084 20.3169C6.22868 20.5037 6.1626 20.7943 6.1626 21.1885Z" fill="url(#paint9_linear)"/>
<path d="M11.2896 21.978C11.2896 21.8573 11.2292 21.7627 11.1084 21.6943C10.9899 21.6237 10.7985 21.561 10.5342 21.5063C9.65462 21.3218 9.21484 20.9481 9.21484 20.3853C9.21484 20.0571 9.35042 19.7837 9.62158 19.5649C9.89502 19.3439 10.2516 19.2334 10.6914 19.2334C11.1608 19.2334 11.5356 19.3439 11.8159 19.5649C12.0985 19.786 12.2397 20.0731 12.2397 20.4263H11.252C11.252 20.285 11.2064 20.1688 11.1152 20.0776C11.0241 19.9842 10.8817 19.9375 10.688 19.9375C10.5216 19.9375 10.3929 19.9751 10.3018 20.0503C10.2106 20.1255 10.165 20.2212 10.165 20.3374C10.165 20.4468 10.2163 20.5356 10.3188 20.604C10.4237 20.6701 10.5991 20.7282 10.8452 20.7783C11.0913 20.8262 11.2987 20.8809 11.4673 20.9424C11.9891 21.1338 12.25 21.4653 12.25 21.937C12.25 22.2743 12.1053 22.5477 11.8159 22.7573C11.5265 22.9647 11.1528 23.0684 10.6948 23.0684C10.3849 23.0684 10.1092 23.0137 9.86768 22.9043C9.62842 22.7926 9.44043 22.6411 9.30371 22.4497C9.16699 22.256 9.09863 22.0475 9.09863 21.8242H10.0352C10.0443 21.9997 10.1092 22.1341 10.23 22.2275C10.3507 22.321 10.5125 22.3677 10.7153 22.3677C10.9045 22.3677 11.0469 22.3324 11.1426 22.2617C11.2406 22.1888 11.2896 22.0942 11.2896 21.978Z" fill="url(#paint10_linear)"/>
<path d="M16.2183 21.1851C16.2183 21.7547 16.0884 22.2116 15.8286 22.5557C15.5711 22.8975 15.2225 23.0684 14.7827 23.0684C14.409 23.0684 14.1071 22.9385 13.877 22.6787V24.4219H12.8892V19.3018H13.8052L13.8394 19.6641C14.0786 19.377 14.3908 19.2334 14.7759 19.2334C15.2316 19.2334 15.5859 19.402 15.8389 19.7393C16.0918 20.0765 16.2183 20.5413 16.2183 21.1338V21.1851ZM15.2305 21.1133C15.2305 20.7692 15.1689 20.5037 15.0459 20.3169C14.9251 20.13 14.7485 20.0366 14.5161 20.0366C14.2062 20.0366 13.9932 20.1551 13.877 20.3921V21.9062C13.9977 22.1501 14.2131 22.272 14.5229 22.272C14.9946 22.272 15.2305 21.8857 15.2305 21.1133Z" fill="url(#paint11_linear)"/>
<path d="M17.876 23H16.8848V19.3018H17.876V23ZM16.8267 18.3447C16.8267 18.1966 16.8757 18.0747 16.9736 17.979C17.0739 17.8833 17.2095 17.8354 17.3804 17.8354C17.549 17.8354 17.6834 17.8833 17.7837 17.979C17.884 18.0747 17.9341 18.1966 17.9341 18.3447C17.9341 18.4951 17.8828 18.6182 17.7803 18.7139C17.68 18.8096 17.5467 18.8574 17.3804 18.8574C17.214 18.8574 17.0796 18.8096 16.9771 18.7139C16.8768 18.6182 16.8267 18.4951 16.8267 18.3447Z" fill="url(#paint12_linear)"/>
<path d="M19.8755 18.3926V19.3018H20.5078V20.0264H19.8755V21.8721C19.8755 22.0088 19.9017 22.1068 19.9541 22.166C20.0065 22.2253 20.1068 22.2549 20.2549 22.2549C20.3643 22.2549 20.4611 22.2469 20.5454 22.231V22.9795C20.3517 23.0387 20.1523 23.0684 19.9473 23.0684C19.2546 23.0684 18.9014 22.7186 18.8877 22.019V20.0264H18.3477V19.3018H18.8877V18.3926H19.8755Z" fill="url(#paint13_linear)"/>
<path d="M23.2012 23C23.1556 22.9111 23.1226 22.8006 23.1021 22.6685C22.8628 22.9351 22.5518 23.0684 22.1689 23.0684C21.8066 23.0684 21.5059 22.9635 21.2666 22.7539C21.0296 22.5443 20.9111 22.2799 20.9111 21.9609C20.9111 21.569 21.0558 21.2682 21.3452 21.0586C21.6369 20.849 22.0573 20.743 22.6064 20.7407H23.061V20.5288C23.061 20.3579 23.0166 20.2212 22.9277 20.1187C22.8411 20.0161 22.7033 19.9648 22.5142 19.9648C22.3478 19.9648 22.2168 20.0047 22.1211 20.0845C22.0277 20.1642 21.981 20.2736 21.981 20.4126H20.9932C20.9932 20.1984 21.0592 20.0002 21.1914 19.8179C21.3236 19.6356 21.5104 19.4932 21.752 19.3906C21.9935 19.2858 22.2646 19.2334 22.5654 19.2334C23.0212 19.2334 23.3823 19.3485 23.6489 19.5786C23.9178 19.8065 24.0522 20.1278 24.0522 20.5425V22.1455C24.0545 22.4964 24.1035 22.7619 24.1992 22.9419V23H23.2012ZM22.3843 22.313C22.5301 22.313 22.6646 22.2811 22.7876 22.2173C22.9106 22.1512 23.0018 22.0635 23.061 21.9541V21.3184H22.6919C22.1974 21.3184 21.9342 21.4893 21.9023 21.8311L21.8989 21.8892C21.8989 22.0122 21.9422 22.1136 22.0288 22.1934C22.1154 22.2731 22.2339 22.313 22.3843 22.313Z" fill="url(#paint14_linear)"/>
<path d="M25.8535 23H24.8623V17.75H25.8535V23Z" fill="url(#paint15_linear)"/>
<path d="M29.5688 23H28.5435V18.0234H29.5688V23Z" fill="url(#paint16_linear)"/>
<path d="M31.3667 19.3018L31.3975 19.729C31.6618 19.3986 32.0161 19.2334 32.4604 19.2334C32.8524 19.2334 33.144 19.3485 33.3354 19.5786C33.5269 19.8088 33.6248 20.1528 33.6294 20.6108V23H32.6416V20.6348C32.6416 20.4251 32.596 20.2736 32.5049 20.1802C32.4137 20.0845 32.2622 20.0366 32.0503 20.0366C31.7723 20.0366 31.5638 20.1551 31.4248 20.3921V23H30.437V19.3018H31.3667Z" fill="url(#paint17_linear)"/>
<path d="M34.6514 23V20.0264H34.1011V19.3018H34.6514V18.9873C34.6514 18.5726 34.7699 18.2513 35.0068 18.0234C35.2461 17.7933 35.5799 17.6782 36.0083 17.6782C36.145 17.6782 36.3125 17.701 36.5107 17.7466L36.5005 18.5122C36.4185 18.4917 36.3182 18.4814 36.1997 18.4814C35.8283 18.4814 35.6426 18.6558 35.6426 19.0044V19.3018H36.3774V20.0264H35.6426V23H34.6514Z" fill="url(#paint18_linear)"/>
<path d="M36.7363 21.1167C36.7363 20.7498 36.807 20.4229 36.9482 20.1357C37.0895 19.8486 37.2923 19.6265 37.5566 19.4692C37.8232 19.312 38.132 19.2334 38.4829 19.2334C38.9819 19.2334 39.3887 19.3861 39.7031 19.6914C40.0199 19.9967 40.1965 20.4115 40.2329 20.9355L40.2397 21.1885C40.2397 21.7559 40.0814 22.2116 39.7646 22.5557C39.4479 22.8975 39.0229 23.0684 38.4897 23.0684C37.9565 23.0684 37.5304 22.8975 37.2114 22.5557C36.8947 22.2139 36.7363 21.749 36.7363 21.1611V21.1167ZM37.7241 21.1885C37.7241 21.5394 37.7902 21.8083 37.9224 21.9951C38.0545 22.1797 38.2437 22.272 38.4897 22.272C38.729 22.272 38.9159 22.1808 39.0503 21.9985C39.1847 21.814 39.252 21.52 39.252 21.1167C39.252 20.7726 39.1847 20.506 39.0503 20.3169C38.9159 20.1278 38.7267 20.0332 38.4829 20.0332C38.2414 20.0332 38.0545 20.1278 37.9224 20.3169C37.7902 20.5037 37.7241 20.7943 37.7241 21.1885Z" fill="url(#paint19_linear)"/>
<path d="M42.9263 20.228C42.7918 20.2098 42.6733 20.2007 42.5708 20.2007C42.1971 20.2007 41.9521 20.3271 41.8359 20.5801V23H40.8481V19.3018H41.7812L41.8086 19.7427C42.0068 19.4032 42.2814 19.2334 42.6323 19.2334C42.7417 19.2334 42.8442 19.2482 42.9399 19.2778L42.9263 20.228Z" fill="url(#paint20_linear)"/>
<path d="M44.3311 19.3018L44.3618 19.7153C44.6239 19.394 44.9782 19.2334 45.4248 19.2334C45.901 19.2334 46.228 19.4214 46.4058 19.7974C46.6655 19.4214 47.0358 19.2334 47.5166 19.2334C47.9176 19.2334 48.2161 19.3507 48.4121 19.5854C48.6081 19.8179 48.7061 20.1688 48.7061 20.6382V23H47.7148V20.6416C47.7148 20.432 47.6738 20.2793 47.5918 20.1836C47.5098 20.0856 47.3651 20.0366 47.1577 20.0366C46.8615 20.0366 46.6564 20.1779 46.5425 20.4604L46.5459 23H45.5581V20.645C45.5581 20.4308 45.5159 20.2759 45.4316 20.1802C45.3473 20.0845 45.2038 20.0366 45.001 20.0366C44.7207 20.0366 44.5179 20.1528 44.3926 20.3853V23H43.4048V19.3018H44.3311Z" fill="url(#paint21_linear)"/>
<path d="M51.6113 23C51.5658 22.9111 51.5327 22.8006 51.5122 22.6685C51.2729 22.9351 50.9619 23.0684 50.5791 23.0684C50.2168 23.0684 49.916 22.9635 49.6768 22.7539C49.4398 22.5443 49.3213 22.2799 49.3213 21.9609C49.3213 21.569 49.466 21.2682 49.7554 21.0586C50.047 20.849 50.4674 20.743 51.0166 20.7407H51.4712V20.5288C51.4712 20.3579 51.4268 20.2212 51.3379 20.1187C51.2513 20.0161 51.1134 19.9648 50.9243 19.9648C50.758 19.9648 50.627 20.0047 50.5312 20.0845C50.4378 20.1642 50.3911 20.2736 50.3911 20.4126H49.4033C49.4033 20.1984 49.4694 20.0002 49.6016 19.8179C49.7337 19.6356 49.9206 19.4932 50.1621 19.3906C50.4036 19.2858 50.6748 19.2334 50.9756 19.2334C51.4313 19.2334 51.7925 19.3485 52.0591 19.5786C52.328 19.8065 52.4624 20.1278 52.4624 20.5425V22.1455C52.4647 22.4964 52.5137 22.7619 52.6094 22.9419V23H51.6113ZM50.7944 22.313C50.9403 22.313 51.0747 22.2811 51.1978 22.2173C51.3208 22.1512 51.4119 22.0635 51.4712 21.9541V21.3184H51.1021C50.6076 21.3184 50.3444 21.4893 50.3125 21.8311L50.3091 21.8892C50.3091 22.0122 50.3524 22.1136 50.439 22.1934C50.5256 22.2731 50.644 22.313 50.7944 22.313Z" fill="url(#paint22_linear)"/>
<path d="M54.4038 18.3926V19.3018H55.0361V20.0264H54.4038V21.8721C54.4038 22.0088 54.43 22.1068 54.4824 22.166C54.5348 22.2253 54.6351 22.2549 54.7832 22.2549C54.8926 22.2549 54.9894 22.2469 55.0737 22.231V22.9795C54.88 23.0387 54.6807 23.0684 54.4756 23.0684C53.7829 23.0684 53.4297 22.7186 53.416 22.019V20.0264H52.876V19.3018H53.416V18.3926H54.4038Z" fill="url(#paint23_linear)"/>
<path d="M56.6289 23H55.6377V19.3018H56.6289V23ZM55.5796 18.3447C55.5796 18.1966 55.6286 18.0747 55.7266 17.979C55.8268 17.8833 55.9624 17.8354 56.1333 17.8354C56.3019 17.8354 56.4364 17.8833 56.5366 17.979C56.6369 18.0747 56.687 18.1966 56.687 18.3447C56.687 18.4951 56.6357 18.6182 56.5332 18.7139C56.4329 18.8096 56.2996 18.8574 56.1333 18.8574C55.967 18.8574 55.8325 18.8096 55.73 18.7139C55.6297 18.6182 55.5796 18.4951 55.5796 18.3447Z" fill="url(#paint24_linear)"/>
<path d="M57.292 21.1167C57.292 20.7498 57.3626 20.4229 57.5039 20.1357C57.6452 19.8486 57.848 19.6265 58.1123 19.4692C58.3789 19.312 58.6877 19.2334 59.0386 19.2334C59.5376 19.2334 59.9443 19.3861 60.2588 19.6914C60.5755 19.9967 60.7521 20.4115 60.7886 20.9355L60.7954 21.1885C60.7954 21.7559 60.637 22.2116 60.3203 22.5557C60.0036 22.8975 59.5786 23.0684 59.0454 23.0684C58.5122 23.0684 58.0861 22.8975 57.7671 22.5557C57.4504 22.2139 57.292 21.749 57.292 21.1611V21.1167ZM58.2798 21.1885C58.2798 21.5394 58.3459 21.8083 58.478 21.9951C58.6102 22.1797 58.7993 22.272 59.0454 22.272C59.2847 22.272 59.4715 22.1808 59.606 21.9985C59.7404 21.814 59.8076 21.52 59.8076 21.1167C59.8076 20.7726 59.7404 20.506 59.606 20.3169C59.4715 20.1278 59.2824 20.0332 59.0386 20.0332C58.797 20.0332 58.6102 20.1278 58.478 20.3169C58.3459 20.5037 58.2798 20.7943 58.2798 21.1885Z" fill="url(#paint25_linear)"/>
<path d="M62.313 19.3018L62.3438 19.729C62.6081 19.3986 62.9624 19.2334 63.4067 19.2334C63.7987 19.2334 64.0903 19.3485 64.2817 19.5786C64.4731 19.8088 64.5711 20.1528 64.5757 20.6108V23H63.5879V20.6348C63.5879 20.4251 63.5423 20.2736 63.4512 20.1802C63.36 20.0845 63.2085 20.0366 62.9966 20.0366C62.7186 20.0366 62.5101 20.1551 62.3711 20.3921V23H61.3833V19.3018H62.313Z" fill="url(#paint26_linear)"/>
<path d="M69.7163 21.6943C69.7163 21.5007 69.6479 21.3525 69.5112 21.25C69.3745 21.1452 69.1284 21.0358 68.7729 20.9219C68.4175 20.8057 68.1361 20.6917 67.9287 20.5801C67.3636 20.2747 67.0811 19.8634 67.0811 19.3462C67.0811 19.0773 67.1562 18.8381 67.3066 18.6284C67.4593 18.4165 67.6769 18.2513 67.9595 18.1328C68.2443 18.0143 68.5633 17.9551 68.9165 17.9551C69.272 17.9551 69.5887 18.02 69.8667 18.1499C70.1447 18.2775 70.36 18.4587 70.5127 18.6934C70.6676 18.9281 70.7451 19.1947 70.7451 19.4932H69.7197C69.7197 19.2653 69.6479 19.0887 69.5044 18.9634C69.3608 18.8358 69.1592 18.772 68.8994 18.772C68.6488 18.772 68.4539 18.8255 68.3149 18.9326C68.1759 19.0374 68.1064 19.1764 68.1064 19.3496C68.1064 19.5114 68.1873 19.647 68.3491 19.7563C68.5132 19.8657 68.7536 19.9683 69.0703 20.064C69.6536 20.2394 70.0786 20.457 70.3452 20.7168C70.6118 20.9766 70.7451 21.3001 70.7451 21.6875C70.7451 22.1182 70.5822 22.4565 70.2563 22.7026C69.9305 22.9465 69.4919 23.0684 68.9404 23.0684C68.5576 23.0684 68.209 22.9989 67.8945 22.8599C67.5801 22.7186 67.3397 22.526 67.1733 22.2822C67.0093 22.0384 66.9272 21.7559 66.9272 21.4346H67.9561C67.9561 21.9837 68.2842 22.2583 68.9404 22.2583C69.1842 22.2583 69.3745 22.2093 69.5112 22.1113C69.6479 22.0111 69.7163 21.8721 69.7163 21.6943Z" fill="url(#paint27_linear)"/>
<path d="M72.7583 21.6021L73.4419 19.3018H74.5015L73.0146 23.5742L72.9326 23.769C72.7116 24.2521 72.347 24.4937 71.8389 24.4937C71.6953 24.4937 71.5495 24.472 71.4014 24.4287V23.6802L71.5518 23.6836C71.7386 23.6836 71.8776 23.6551 71.9688 23.5981C72.0622 23.5412 72.1351 23.4466 72.1875 23.3145L72.3037 23.0103L71.0083 19.3018H72.0713L72.7583 21.6021Z" fill="url(#paint28_linear)"/>
<path d="M76.894 21.978C76.894 21.8573 76.8337 21.7627 76.7129 21.6943C76.5944 21.6237 76.403 21.561 76.1387 21.5063C75.2591 21.3218 74.8193 20.9481 74.8193 20.3853C74.8193 20.0571 74.9549 19.7837 75.2261 19.5649C75.4995 19.3439 75.8561 19.2334 76.2959 19.2334C76.7653 19.2334 77.1401 19.3439 77.4204 19.5649C77.703 19.786 77.8442 20.0731 77.8442 20.4263H76.8564C76.8564 20.285 76.8109 20.1688 76.7197 20.0776C76.6286 19.9842 76.4862 19.9375 76.2925 19.9375C76.1261 19.9375 75.9974 19.9751 75.9062 20.0503C75.8151 20.1255 75.7695 20.2212 75.7695 20.3374C75.7695 20.4468 75.8208 20.5356 75.9233 20.604C76.0282 20.6701 76.2036 20.7282 76.4497 20.7783C76.6958 20.8262 76.9032 20.8809 77.0718 20.9424C77.5936 21.1338 77.8545 21.4653 77.8545 21.937C77.8545 22.2743 77.7098 22.5477 77.4204 22.7573C77.131 22.9647 76.7573 23.0684 76.2993 23.0684C75.9894 23.0684 75.7137 23.0137 75.4722 22.9043C75.2329 22.7926 75.0449 22.6411 74.9082 22.4497C74.7715 22.256 74.7031 22.0475 74.7031 21.8242H75.6396C75.6488 21.9997 75.7137 22.1341 75.8345 22.2275C75.9552 22.321 76.117 22.3677 76.3198 22.3677C76.5089 22.3677 76.6514 22.3324 76.7471 22.2617C76.8451 22.1888 76.894 22.0942 76.894 21.978Z" fill="url(#paint29_linear)"/>
<path d="M79.6763 18.3926V19.3018H80.3086V20.0264H79.6763V21.8721C79.6763 22.0088 79.7025 22.1068 79.7549 22.166C79.8073 22.2253 79.9076 22.2549 80.0557 22.2549C80.165 22.2549 80.2619 22.2469 80.3462 22.231V22.9795C80.1525 23.0387 79.9531 23.0684 79.748 23.0684C79.0553 23.0684 78.7021 22.7186 78.6885 22.019V20.0264H78.1484V19.3018H78.6885V18.3926H79.6763Z" fill="url(#paint30_linear)"/>
<path d="M82.561 23.0684C82.0187 23.0684 81.5767 22.902 81.2349 22.5693C80.8953 22.2367 80.7256 21.7935 80.7256 21.2397V21.144C80.7256 20.7726 80.7974 20.4411 80.9409 20.1494C81.0845 19.8555 81.2873 19.6299 81.5493 19.4727C81.8136 19.3132 82.1144 19.2334 82.4517 19.2334C82.9575 19.2334 83.3551 19.3929 83.6445 19.7119C83.9362 20.0309 84.082 20.4832 84.082 21.0688V21.4722H81.7271C81.7589 21.7137 81.8547 21.9074 82.0142 22.0532C82.1759 22.1991 82.3799 22.272 82.626 22.272C83.0065 22.272 83.3039 22.1341 83.5181 21.8584L84.0034 22.4019C83.8553 22.6115 83.6548 22.7756 83.4019 22.894C83.1489 23.0103 82.8687 23.0684 82.561 23.0684ZM82.4482 20.0332C82.2523 20.0332 82.0928 20.0993 81.9697 20.2314C81.849 20.3636 81.7715 20.5527 81.7373 20.7988H83.1113V20.7202C83.1068 20.5015 83.0475 20.3328 82.9336 20.2144C82.8197 20.0936 82.6579 20.0332 82.4482 20.0332Z" fill="url(#paint31_linear)"/>
<path d="M85.5723 19.3018L85.603 19.7153C85.8651 19.394 86.2194 19.2334 86.666 19.2334C87.1423 19.2334 87.4692 19.4214 87.647 19.7974C87.9067 19.4214 88.277 19.2334 88.7578 19.2334C89.1589 19.2334 89.4574 19.3507 89.6533 19.5854C89.8493 19.8179 89.9473 20.1688 89.9473 20.6382V23H88.9561V20.6416C88.9561 20.432 88.915 20.2793 88.833 20.1836C88.751 20.0856 88.6063 20.0366 88.3989 20.0366C88.1027 20.0366 87.8976 20.1779 87.7837 20.4604L87.7871 23H86.7993V20.645C86.7993 20.4308 86.7572 20.2759 86.6729 20.1802C86.5885 20.0845 86.445 20.0366 86.2422 20.0366C85.9619 20.0366 85.7591 20.1528 85.6338 20.3853V23H84.646V19.3018H85.5723Z" fill="url(#paint32_linear)"/>
<defs>
<linearGradient id="paint0_linear" x1="106.647" y1="28.2848" x2="14.2149" y2="13.2909" gradientUnits="userSpaceOnUse">
<stop stop-color="#1DE9B6"/>
<stop offset="1" stop-color="#039BE5"/>
</linearGradient>
<linearGradient id="paint1_linear" x1="106.647" y1="28.2848" x2="14.2149" y2="13.2909" gradientUnits="userSpaceOnUse">
<stop stop-color="#1DE9B6"/>
<stop offset="1" stop-color="#039BE5"/>
</linearGradient>
<linearGradient id="paint2_linear" x1="106.647" y1="28.2848" x2="14.2149" y2="13.2909" gradientUnits="userSpaceOnUse">
<stop stop-color="#1DE9B6"/>
<stop offset="1" stop-color="#039BE5"/>
</linearGradient>
<linearGradient id="paint3_linear" x1="106.647" y1="28.2848" x2="14.2149" y2="13.2909" gradientUnits="userSpaceOnUse">
<stop stop-color="#1DE9B6"/>
<stop offset="1" stop-color="#039BE5"/>
</linearGradient>
<linearGradient id="paint4_linear" x1="106.647" y1="28.2848" x2="14.2149" y2="13.2909" gradientUnits="userSpaceOnUse">
<stop stop-color="#1DE9B6"/>
<stop offset="1" stop-color="#039BE5"/>
</linearGradient>
<linearGradient id="paint5_linear" x1="106.647" y1="28.2848" x2="14.2149" y2="13.2909" gradientUnits="userSpaceOnUse">
<stop stop-color="#1DE9B6"/>
<stop offset="1" stop-color="#039BE5"/>
</linearGradient>
<linearGradient id="paint6_linear" x1="106.647" y1="28.2848" x2="14.2149" y2="13.2909" gradientUnits="userSpaceOnUse">
<stop stop-color="#1DE9B6"/>
<stop offset="1" stop-color="#039BE5"/>
</linearGradient>
<linearGradient id="paint7_linear" x1="106.647" y1="28.2848" x2="14.2149" y2="13.2909" gradientUnits="userSpaceOnUse">
<stop stop-color="#1DE9B6"/>
<stop offset="1" stop-color="#039BE5"/>
</linearGradient>
<linearGradient id="paint8_linear" x1="106.647" y1="28.2848" x2="14.2149" y2="13.2909" gradientUnits="userSpaceOnUse">
<stop stop-color="#1DE9B6"/>
<stop offset="1" stop-color="#039BE5"/>
</linearGradient>
<linearGradient id="paint9_linear" x1="106.647" y1="28.2848" x2="14.2149" y2="13.2909" gradientUnits="userSpaceOnUse">
<stop stop-color="#1DE9B6"/>
<stop offset="1" stop-color="#039BE5"/>
</linearGradient>
<linearGradient id="paint10_linear" x1="106.647" y1="28.2848" x2="14.2149" y2="13.2909" gradientUnits="userSpaceOnUse">
<stop stop-color="#1DE9B6"/>
<stop offset="1" stop-color="#039BE5"/>
</linearGradient>
<linearGradient id="paint11_linear" x1="106.647" y1="28.2848" x2="14.2149" y2="13.2909" gradientUnits="userSpaceOnUse">
<stop stop-color="#1DE9B6"/>
<stop offset="1" stop-color="#039BE5"/>
</linearGradient>
<linearGradient id="paint12_linear" x1="106.647" y1="28.2848" x2="14.2149" y2="13.2909" gradientUnits="userSpaceOnUse">
<stop stop-color="#1DE9B6"/>
<stop offset="1" stop-color="#039BE5"/>
</linearGradient>
<linearGradient id="paint13_linear" x1="106.647" y1="28.2848" x2="14.2149" y2="13.2909" gradientUnits="userSpaceOnUse">
<stop stop-color="#1DE9B6"/>
<stop offset="1" stop-color="#039BE5"/>
</linearGradient>
<linearGradient id="paint14_linear" x1="106.647" y1="28.2848" x2="14.2149" y2="13.2909" gradientUnits="userSpaceOnUse">
<stop stop-color="#1DE9B6"/>
<stop offset="1" stop-color="#039BE5"/>
</linearGradient>
<linearGradient id="paint15_linear" x1="106.647" y1="28.2848" x2="14.2149" y2="13.2909" gradientUnits="userSpaceOnUse">
<stop stop-color="#1DE9B6"/>
<stop offset="1" stop-color="#039BE5"/>
</linearGradient>
<linearGradient id="paint16_linear" x1="106.647" y1="28.2848" x2="14.2149" y2="13.2909" gradientUnits="userSpaceOnUse">
<stop stop-color="#1DE9B6"/>
<stop offset="1" stop-color="#039BE5"/>
</linearGradient>
<linearGradient id="paint17_linear" x1="106.647" y1="28.2848" x2="14.2149" y2="13.2909" gradientUnits="userSpaceOnUse">
<stop stop-color="#1DE9B6"/>
<stop offset="1" stop-color="#039BE5"/>
</linearGradient>
<linearGradient id="paint18_linear" x1="106.647" y1="28.2848" x2="14.2149" y2="13.2909" gradientUnits="userSpaceOnUse">
<stop stop-color="#1DE9B6"/>
<stop offset="1" stop-color="#039BE5"/>
</linearGradient>
<linearGradient id="paint19_linear" x1="106.647" y1="28.2848" x2="14.2149" y2="13.2909" gradientUnits="userSpaceOnUse">
<stop stop-color="#1DE9B6"/>
<stop offset="1" stop-color="#039BE5"/>
</linearGradient>
<linearGradient id="paint20_linear" x1="106.647" y1="28.2848" x2="14.2149" y2="13.2909" gradientUnits="userSpaceOnUse">
<stop stop-color="#1DE9B6"/>
<stop offset="1" stop-color="#039BE5"/>
</linearGradient>
<linearGradient id="paint21_linear" x1="106.647" y1="28.2848" x2="14.2149" y2="13.2909" gradientUnits="userSpaceOnUse">
<stop stop-color="#1DE9B6"/>
<stop offset="1" stop-color="#039BE5"/>
</linearGradient>
<linearGradient id="paint22_linear" x1="106.647" y1="28.2848" x2="14.2149" y2="13.2909" gradientUnits="userSpaceOnUse">
<stop stop-color="#1DE9B6"/>
<stop offset="1" stop-color="#039BE5"/>
</linearGradient>
<linearGradient id="paint23_linear" x1="106.647" y1="28.2848" x2="14.2149" y2="13.2909" gradientUnits="userSpaceOnUse">
<stop stop-color="#1DE9B6"/>
<stop offset="1" stop-color="#039BE5"/>
</linearGradient>
<linearGradient id="paint24_linear" x1="106.647" y1="28.2848" x2="14.2149" y2="13.2909" gradientUnits="userSpaceOnUse">
<stop stop-color="#1DE9B6"/>
<stop offset="1" stop-color="#039BE5"/>
</linearGradient>
<linearGradient id="paint25_linear" x1="106.647" y1="28.2848" x2="14.2149" y2="13.2909" gradientUnits="userSpaceOnUse">
<stop stop-color="#1DE9B6"/>
<stop offset="1" stop-color="#039BE5"/>
</linearGradient>
<linearGradient id="paint26_linear" x1="106.647" y1="28.2848" x2="14.2149" y2="13.2909" gradientUnits="userSpaceOnUse">
<stop stop-color="#1DE9B6"/>
<stop offset="1" stop-color="#039BE5"/>
</linearGradient>
<linearGradient id="paint27_linear" x1="106.647" y1="28.2848" x2="14.2149" y2="13.2909" gradientUnits="userSpaceOnUse">
<stop stop-color="#1DE9B6"/>
<stop offset="1" stop-color="#039BE5"/>
</linearGradient>
<linearGradient id="paint28_linear" x1="106.647" y1="28.2848" x2="14.2149" y2="13.2909" gradientUnits="userSpaceOnUse">
<stop stop-color="#1DE9B6"/>
<stop offset="1" stop-color="#039BE5"/>
</linearGradient>
<linearGradient id="paint29_linear" x1="106.647" y1="28.2848" x2="14.2149" y2="13.2909" gradientUnits="userSpaceOnUse">
<stop stop-color="#1DE9B6"/>
<stop offset="1" stop-color="#039BE5"/>
</linearGradient>
<linearGradient id="paint30_linear" x1="106.647" y1="28.2848" x2="14.2149" y2="13.2909" gradientUnits="userSpaceOnUse">
<stop stop-color="#1DE9B6"/>
<stop offset="1" stop-color="#039BE5"/>
</linearGradient>
<linearGradient id="paint31_linear" x1="106.647" y1="28.2848" x2="14.2149" y2="13.2909" gradientUnits="userSpaceOnUse">
<stop stop-color="#1DE9B6"/>
<stop offset="1" stop-color="#039BE5"/>
</linearGradient>
<linearGradient id="paint32_linear" x1="106.647" y1="28.2848" x2="14.2149" y2="13.2909" gradientUnits="userSpaceOnUse">
<stop stop-color="#1DE9B6"/>
<stop offset="1" stop-color="#039BE5"/>
</linearGradient>
</defs>
</svg>
