<svg width="29" height="32" viewBox="0 0 29 32" fill="none" xmlns="http://www.w3.org/2000/svg">
<path fill-rule="evenodd" clip-rule="evenodd" d="M10.1783 10.3691H8.27059C5.86285 10.3691 3.69266 11.4116 2.18178 13.0714C1.78841 13.556 0.912955 14.7619 0.55811 15.7089C-0.130214 17.5124 0.0122 20.6534 0.0122 24.515L0.0216851 26.5751C0.126636 27.8043 1.15377 28.7725 2.40206 28.7725H15.273C17.3885 30.7987 19.6477 31.8273 19.8243 31.9062C19.9656 31.9692 20.1155 32 20.2669 32C20.4183 32 20.5682 31.9692 20.708 31.9062C21.0457 31.7554 29 28.1311 29 20.6994V14.9436C29 14.4616 28.687 14.0353 28.2284 13.8932L20.5857 11.539C20.379 11.4746 20.1548 11.4746 19.9466 11.539L15.972 12.7633C14.4802 11.2837 12.4335 10.3691 10.1783 10.3691ZM2.05936 26.3677C2.05936 26.5577 2.21303 26.7124 2.40199 26.7124H13.4917C12.3595 25.0966 11.5323 23.0959 11.5323 20.6994V14.9436C11.5323 14.4602 11.8453 14.0339 12.3039 13.8932L13.6292 13.485C12.6416 12.8184 11.4542 12.4292 10.1783 12.4292H8.27052C4.84568 12.4292 2.05936 15.2331 2.05936 18.6796V26.3677ZM13.716 20.6994V15.7566L20.2669 13.7379L26.8178 15.7566V20.6994C26.8178 25.7989 21.8027 28.8577 20.2654 29.6751C19.7323 29.3934 18.7824 28.8441 17.7685 28.0334C17.2667 27.6322 16.7492 27.1669 16.2588 26.6384C14.8803 25.1528 13.716 23.1674 13.716 20.6994Z" fill="#F9A825"/>
<path d="M9.22443 11.9485C12.498 11.9485 15.1612 9.26846 15.1612 5.97425C15.1612 2.68003 12.498 0 9.22443 0C5.95088 0 3.28766 2.68003 3.28766 5.97425C3.28766 6.96395 3.52805 7.89822 3.95316 8.72103C4.94301 10.6369 6.93438 11.9485 9.22443 11.9485ZM9.22443 2.06009C11.3692 2.06009 13.114 3.81597 13.114 5.97425C13.114 8.13253 11.3692 9.88841 9.22443 9.88841C7.73208 9.88841 6.43333 9.03828 5.78131 7.79399C5.49627 7.25004 5.33482 6.63076 5.33482 5.97425C5.33482 3.81597 7.07968 2.06009 9.22443 2.06009Z" fill="#F9A825"/>
<path d="M19.539 24.6753C19.2493 24.6753 18.9713 24.5595 18.7675 24.353L16.2199 21.7893C15.7934 21.3601 15.7934 20.6642 16.2199 20.235C16.6464 19.8058 17.3379 19.8058 17.7644 20.235L19.5114 21.9929L23.471 17.7006C23.883 17.2553 24.5716 17.2318 25.0156 17.642C25.4567 18.0551 25.4814 18.751 25.0724 19.1949L20.3411 24.3222C20.1388 24.5405 19.8578 24.6679 19.5609 24.6738C19.5521 24.6753 19.5463 24.6753 19.539 24.6753Z" fill="#F9A825"/>
</svg>
